<svg width="38" height="32" viewBox="0 0 38 32" fill="none" xmlns="http://www.w3.org/2000/svg">
<path d="M17.5454 18.9091V27.6364C17.5454 28.8485 17.1211 29.8788 16.2726 30.7273C15.4242 31.5758 14.3939 32 13.1817 32H4.45446C3.24234 32 2.21203 31.5758 1.36355 30.7273C0.515063 29.8788 0.0908203 28.8485 0.0908203 27.6364V11.6364C0.0908203 10.0606 0.397638 8.55682 1.01127 7.125C1.62491 5.69318 2.45446 4.45455 3.49991 3.40909C4.54537 2.36364 5.784 1.53409 7.21582 0.920455C8.64764 0.306818 10.1514 0 11.7272 0H13.1817C13.5757 0 13.9166 0.143939 14.2045 0.431818C14.4923 0.719697 14.6363 1.06061 14.6363 1.45455V4.36364C14.6363 4.75758 14.4923 5.09848 14.2045 5.38636C13.9166 5.67424 13.5757 5.81818 13.1817 5.81818H11.7272C10.1211 5.81818 8.74991 6.38636 7.61355 7.52273C6.47718 8.65909 5.909 10.0303 5.909 11.6364V12.3636C5.909 12.9697 6.12112 13.4848 6.54537 13.9091C6.96961 14.3333 7.48476 14.5455 8.09082 14.5455H13.1817C14.3939 14.5455 15.4242 14.9697 16.2726 15.8182C17.1211 16.6667 17.5454 17.697 17.5454 18.9091ZM37.909 18.9091V27.6364C37.909 28.8485 37.4848 29.8788 36.6363 30.7273C35.7878 31.5758 34.7575 32 33.5454 32H24.8181C23.606 32 22.5757 31.5758 21.7272 30.7273C20.8787 29.8788 20.4545 28.8485 20.4545 27.6364V11.6364C20.4545 10.0606 20.7613 8.55682 21.3749 7.125C21.9885 5.69318 22.8181 4.45455 23.8635 3.40909C24.909 2.36364 26.1476 1.53409 27.5795 0.920455C29.0113 0.306818 30.5151 0 32.0908 0H33.5454C33.9393 0 34.2802 0.143939 34.5681 0.431818C34.856 0.719697 34.9999 1.06061 34.9999 1.45455V4.36364C34.9999 4.75758 34.856 5.09848 34.5681 5.38636C34.2802 5.67424 33.9393 5.81818 33.5454 5.81818H32.0908C30.4848 5.81818 29.1135 6.38636 27.9772 7.52273C26.8408 8.65909 26.2726 10.0303 26.2726 11.6364V12.3636C26.2726 12.9697 26.4848 13.4848 26.909 13.9091C27.3332 14.3333 27.8484 14.5455 28.4545 14.5455H33.5454C34.7575 14.5455 35.7878 14.9697 36.6363 15.8182C37.4848 16.6667 37.909 17.697 37.909 18.9091Z" fill="#1F2B5A"/>
</svg>
