<svg width="1440" height="144" viewBox="0 0 1440 144" fill="none" xmlns="http://www.w3.org/2000/svg">
<rect width="1585.02" height="78" transform="translate(-73.3086 27.6621) rotate(-1)" fill="#064F38"/>
<path d="M-62.734 54.0417L-60.8851 79.2933C-60.8828 79.4213 -60.9463 79.4544 -61.0422 79.456L-64.8817 79.5231C-64.9776 79.5247 -65.0422 79.4939 -65.0444 79.3659L-65.4761 72.9724L-67.7157 73.0115L-67.924 79.4161C-67.9217 79.5441 -67.9852 79.5772 -68.0812 79.5789L-71.9206 79.6459C-72.0166 79.6476 -72.0811 79.6167 -72.0833 79.4887L-71.1168 54.188C-71.119 54.06 -71.0556 54.0269 -70.9596 54.0253L-62.8968 53.8845C-62.8008 53.8828 -62.7363 53.9137 -62.734 54.0417ZM-67.1811 57.7999L-67.5588 69.1682L-65.767 69.1369L-66.5412 57.7887L-67.1811 57.7999ZM-49.3977 58.7697L-49.3207 63.185C-49.2905 64.9127 -50.2734 65.442 -50.7842 65.5149L-50.7731 66.1548C-50.292 66.2104 -49.2592 66.7045 -49.2291 68.4322L-49.1297 74.1273C-49.0738 77.3268 -49.6802 79.2577 -52.2398 79.3024L-59.1188 79.4225C-59.2148 79.4241 -59.2799 79.3613 -59.2815 79.2653L-59.7227 53.9891C-59.7244 53.8932 -59.6615 53.828 -59.5656 53.8264L-52.6866 53.7063C-50.127 53.6616 -49.4536 55.5702 -49.3977 58.7697ZM-55.4992 57.596L-55.3903 63.835L-53.4705 63.8015L-53.5794 57.5625L-55.4992 57.596ZM-53.2667 75.4797L-53.3979 67.9609L-55.3176 67.9944L-55.1864 75.5132L-53.2667 75.4797ZM-40.5172 53.4939C-37.9576 53.4492 -37.2842 55.3577 -37.2283 58.5573L-36.9603 73.9149C-36.9044 77.1144 -37.5108 79.0453 -40.0704 79.09L-43.9098 79.157C-46.4695 79.2017 -47.1429 77.2931 -47.1987 74.0936L-47.4668 58.736C-47.5226 55.5365 -46.9162 53.6056 -44.3566 53.5609L-40.5172 53.4939ZM-41.0973 75.2673L-41.41 57.3501L-43.3298 57.3836L-43.017 75.3008L-41.0973 75.2673ZM-35.0221 74.2971L-35.384 53.5643C-35.3856 53.4683 -35.3228 53.4032 -35.2268 53.4015L-31.3874 53.3345C-31.2914 53.3328 -31.2263 53.3957 -31.2246 53.4917L-30.8476 75.0884L-28.9279 75.0549L-29.3049 53.4582C-29.3066 53.3622 -29.2437 53.2971 -29.1477 53.2954L-25.3083 53.2284C-25.2123 53.2267 -25.1472 53.2896 -25.1455 53.3856L-24.7836 74.1184C-24.7384 76.71 -25.6934 78.839 -27.5811 78.872L-32.0604 78.9502C-33.9481 78.9831 -34.9768 76.8888 -35.0221 74.2971ZM-23.3698 53.1946L-14.4112 53.0382C-14.3152 53.0365 -14.2501 53.0994 -14.2484 53.1954L-14.187 56.7148C-14.1853 56.8108 -14.2482 56.8759 -14.3442 56.8776L-16.7438 56.9195L-16.3668 78.5162C-16.3652 78.6122 -16.428 78.6773 -16.524 78.679L-20.3634 78.746C-20.4594 78.7477 -20.5245 78.6848 -20.5262 78.5888L-20.9032 56.9921L-23.3028 57.034C-23.3988 57.0357 -23.4639 56.9728 -23.4656 56.8768L-23.527 53.3573C-23.5287 53.2614 -23.4658 53.1962 -23.3698 53.1946ZM-8.1374 73.8279L-8.4993 53.095C-8.50097 52.999 -8.4381 52.9339 -8.34211 52.9323L-4.5027 52.8652C-4.40671 52.8636 -4.34161 52.9264 -4.33993 53.0224L-3.96296 74.6191L-2.04325 74.5856L-2.42022 52.9889C-2.4219 52.8929 -2.35902 52.8278 -2.26304 52.8262L1.57638 52.7591C1.67236 52.7575 1.73747 52.8203 1.73914 52.9163L2.10104 73.6492C2.14627 76.2408 1.19128 78.3698 -0.696429 78.4027L-5.17575 78.4809C-7.06346 78.5138 -8.09217 76.4195 -8.1374 73.8279ZM9.90332 61.6072L9.8134 56.4559L7.89369 56.4895L7.97467 61.1287C7.98082 61.4807 7.95943 62.0892 8.63691 62.3974L11.2189 63.6325C13.1873 64.5583 14.1353 65.6939 14.1805 68.2855L14.2632 73.0208C14.319 76.2203 13.7126 78.1512 11.153 78.1959L7.3136 78.2629C4.75399 78.3076 4.08058 76.399 4.02474 73.1995L3.93482 68.0483C3.93315 67.9523 3.99602 67.8872 4.092 67.8855L7.93142 67.8185C8.0274 67.8168 8.09251 67.8797 8.09419 67.9757L8.20644 74.4067L10.1261 74.3732L10.0228 68.4541C10.0167 68.1022 10.0381 67.4937 9.36059 67.1855L6.77864 65.9504C4.81018 65.0246 3.86222 63.8889 3.81698 61.2973L3.75667 57.8419C3.70082 54.6423 4.30721 52.7115 6.86682 52.6668L10.7062 52.5998C13.2658 52.5551 13.9393 54.4636 13.9951 57.6631L14.0627 61.5346C14.0644 61.6305 14.0015 61.6956 13.9055 61.6973L10.0661 61.7643C9.9701 61.766 9.90499 61.7031 9.90332 61.6072Z" fill="white"/>
<rect x="58.4688" y="53.0525" width="16" height="16" transform="rotate(44 58.4688 53.0525)" fill="white"/>
<path d="M108.631 50.8903L112.471 50.8233C112.567 50.8216 112.632 50.8845 112.633 50.9804L113.075 76.2566C113.076 76.3526 113.013 76.4177 112.917 76.4194L109.078 76.4864C108.982 76.4881 108.917 76.4252 108.915 76.3292L108.728 65.6108L106.808 65.6443L106.996 76.3627C106.997 76.4587 106.934 76.5238 106.838 76.5255L102.999 76.5925C102.903 76.5942 102.838 76.5313 102.836 76.4353L102.395 51.1592C102.393 51.0632 102.456 50.9981 102.552 50.9964L106.392 50.9294C106.488 50.9277 106.553 50.9906 106.554 51.0866L106.741 61.8049L108.661 61.7714L108.474 51.053C108.472 50.9571 108.535 50.892 108.631 50.8903ZM125.526 64.6775L122.486 64.7306L122.497 65.3705C125.057 65.3258 125.73 67.2344 125.786 70.4339L125.797 71.0738C125.853 74.2733 125.247 76.2042 122.687 76.2488L118.208 76.327C115.648 76.3717 114.975 74.4632 114.919 71.2636L114.82 65.5685C114.789 63.8408 115.804 63.311 116.283 63.2386L116.272 62.5987C115.791 62.5431 114.758 62.0491 114.728 60.3213L114.651 55.906C114.595 52.7065 115.202 50.7756 117.761 50.7309L121.601 50.6639C124.16 50.6192 124.834 52.5278 124.889 55.7273L124.94 58.6068C124.941 58.7028 124.878 58.7679 124.782 58.7696L120.943 58.8366C120.847 58.8383 120.782 58.7754 120.78 58.6794L120.708 54.5201L118.788 54.5536L118.9 60.9526L125.459 60.8381C125.555 60.8364 125.62 60.8993 125.621 60.9953L125.683 64.5148C125.685 64.6107 125.622 64.6759 125.526 64.6775ZM121.66 72.4262L121.526 64.7473L118.967 64.792L119.101 72.4709L121.66 72.4262ZM133.595 50.4545L137.434 50.3875C137.53 50.3858 137.595 50.4487 137.597 50.5447L138.038 75.8209C138.04 75.9168 137.977 75.9819 137.881 75.9836L134.042 76.0506C133.946 76.0523 133.881 75.9894 133.879 75.8935L133.692 65.1751L131.772 65.2086L131.959 75.927C131.961 76.023 131.898 76.0881 131.802 76.0897L127.963 76.1567C127.867 76.1584 127.802 76.0956 127.8 75.9996L127.359 50.7234C127.357 50.6274 127.42 50.5623 127.516 50.5606L131.355 50.4936C131.451 50.492 131.516 50.5548 131.518 50.6508L131.705 61.3692L133.625 61.3357L133.438 50.6173C133.436 50.5213 133.499 50.4562 133.595 50.4545ZM149.588 59.1687L149.498 54.0175L147.579 54.051L147.66 58.6903C147.666 59.0423 147.644 59.6507 148.322 59.959L150.904 61.1941C152.872 62.1199 153.82 63.2555 153.865 65.8471L153.948 70.5824C154.004 73.7819 153.398 75.7128 150.838 75.7575L146.999 75.8245C144.439 75.8692 143.766 73.9606 143.71 70.7611L143.62 65.6099C143.618 65.5139 143.681 65.4488 143.777 65.4471L147.616 65.3801C147.712 65.3784 147.777 65.4413 147.779 65.5373L147.891 71.9683L149.811 71.9348L149.708 66.0157C149.702 65.6638 149.723 65.0553 149.046 64.7471L146.464 63.5119C144.495 62.5862 143.547 61.4505 143.502 58.8589L143.442 55.4034C143.386 52.2039 143.992 50.2731 146.552 50.2284L150.391 50.1614C152.951 50.1167 153.624 52.0252 153.68 55.2247L153.748 59.0961C153.749 59.1921 153.686 59.2572 153.59 59.2589L149.751 59.3259C149.655 59.3276 149.59 59.2647 149.588 59.1687ZM161.761 49.9629L165.6 49.8959C165.696 49.8942 165.761 49.9571 165.763 50.0531L166.204 75.3292C166.206 75.4252 166.143 75.4903 166.047 75.492L162.207 75.559C162.111 75.5607 162.046 75.4978 162.045 75.4018L161.858 64.6835L159.938 64.717L160.125 75.4353C160.127 75.5313 160.064 75.5964 159.968 75.5981L156.128 75.6651C156.032 75.6668 155.967 75.6039 155.966 75.5079L155.524 50.2318C155.523 50.1358 155.586 50.0707 155.682 50.069L159.521 50.002C159.617 50.0003 159.682 50.0632 159.684 50.1592L159.871 60.8775L161.791 60.844L161.603 50.1257C161.602 50.0297 161.665 49.9646 161.761 49.9629ZM177.164 49.8541L179.013 75.1056C179.016 75.2336 178.952 75.2667 178.856 75.2684L175.017 75.3354C174.921 75.3371 174.856 75.3062 174.854 75.1782L174.422 68.7848L172.183 68.8239L171.974 75.2285C171.977 75.3565 171.913 75.3896 171.817 75.3913L167.978 75.4583C167.882 75.46 167.817 75.4291 167.815 75.3011L168.782 50.0004C168.779 49.8724 168.843 49.8393 168.939 49.8376L177.002 49.6969C177.098 49.6952 177.162 49.7261 177.164 49.8541ZM172.717 53.6122L172.34 64.9806L174.131 64.9493L173.357 53.6011L172.717 53.6122ZM184.619 75.1678L180.78 75.2348C180.684 75.2365 180.619 75.1736 180.617 75.0776L180.176 49.8015C180.174 49.7055 180.237 49.6404 180.333 49.6387L184.172 49.5717C184.268 49.57 184.333 49.6329 184.335 49.7289L184.519 60.2873L185.159 60.2761L187.023 49.682C187.053 49.5854 187.116 49.5203 187.212 49.5187L191.179 49.4494C191.275 49.4477 191.34 49.5106 191.31 49.6071L188.907 62.291L191.751 74.8833C191.785 75.0107 191.722 75.0438 191.626 75.0455L187.659 75.1148C187.563 75.1164 187.497 75.0536 187.464 74.9581L185.232 64.4355L184.592 64.4466L184.776 75.005C184.778 75.101 184.715 75.1661 184.619 75.1678ZM200.36 64.0114L197.321 64.0644L197.444 71.1034L201.443 71.0336C201.539 71.0319 201.604 71.0948 201.606 71.1907L201.667 74.7102C201.669 74.8062 201.606 74.8713 201.51 74.873L193.511 75.0126C193.415 75.0143 193.35 74.9514 193.349 74.8554L192.907 49.5793C192.906 49.4833 192.969 49.4182 193.065 49.4165L200.743 49.2825C200.839 49.2808 200.905 49.3437 200.906 49.4396L200.968 52.9591C200.969 53.0551 200.906 53.1202 200.811 53.1219L197.131 53.1861L197.254 60.225L200.293 60.172C200.389 60.1703 200.455 60.2332 200.456 60.3292L200.518 63.8486C200.519 63.9446 200.456 64.0097 200.36 64.0114ZM214.203 74.4594C214.268 74.5543 214.206 74.6514 214.11 74.653L210.207 74.7212C210.143 74.7223 210.046 74.66 210.012 74.5965C209.585 73.9639 209.566 72.8441 209.555 72.2362L209.462 63.2124L207.542 63.2459L207.74 74.6042C207.742 74.7002 207.679 74.7653 207.583 74.767L203.744 74.834C203.648 74.8357 203.583 74.7728 203.581 74.6768L203.14 49.4007C203.138 49.3047 203.201 49.2396 203.297 49.2379L210.176 49.1178C212.735 49.0731 213.409 50.9817 213.465 54.1812L213.542 58.5965C213.572 60.3243 212.589 60.8535 212.078 60.9264L212.089 61.5663C212.57 61.6219 213.603 62.116 213.633 63.8437L213.779 72.1624C213.788 72.7064 213.808 73.8262 214.203 74.4594ZM207.475 59.4065L209.395 59.373L209.283 52.974L207.363 53.0075L207.475 59.4065Z" fill="white"/>
<rect x="258.064" y="49.5684" width="16" height="16" transform="rotate(44 258.064 49.5684)" fill="white"/>
<path d="M311.463 47.51L313.312 72.7615C313.314 72.8895 313.251 72.9226 313.155 72.9243L309.316 72.9913C309.22 72.993 309.155 72.9621 309.153 72.8341L308.721 66.4407L306.482 66.4798L306.273 72.8844C306.276 73.0124 306.212 73.0455 306.116 73.0472L302.277 73.1142C302.181 73.1159 302.116 73.085 302.114 72.957L303.081 47.6563C303.078 47.5283 303.142 47.4952 303.238 47.4935L311.3 47.3528C311.396 47.3511 311.461 47.382 311.463 47.51ZM307.016 51.2681L306.638 62.6365L308.43 62.6052L307.656 51.257L307.016 51.2681ZM324.8 52.2379L324.877 56.6533C324.907 58.381 323.924 58.9102 323.413 58.9832L323.424 59.6231C323.905 59.6787 324.938 60.1727 324.968 61.9005L325.068 67.5956C325.123 70.7951 324.517 72.726 321.957 72.7707L315.078 72.8907C314.983 72.8924 314.917 72.8295 314.916 72.7336L314.475 47.4574C314.473 47.3614 314.536 47.2963 314.632 47.2946L321.511 47.1746C324.07 47.1299 324.744 49.0384 324.8 52.2379ZM318.698 51.0642L318.807 57.3033L320.727 57.2698L320.618 51.0307L318.698 51.0642ZM320.931 68.948L320.799 61.4291L318.88 61.4627L319.011 68.9815L320.931 68.948ZM333.68 46.9621C336.24 46.9175 336.913 48.826 336.969 52.0255L337.237 67.3832C337.293 70.5827 336.686 72.5136 334.127 72.5582L330.287 72.6253C327.728 72.6699 327.054 70.7614 326.999 67.5619L326.73 52.2042C326.675 49.0047 327.281 47.0738 329.841 47.0292L333.68 46.9621ZM333.1 68.7356L332.787 50.8183L330.868 50.8518L331.18 68.7691L333.1 68.7356ZM339.175 67.7654L338.813 47.0326C338.812 46.9366 338.875 46.8715 338.97 46.8698L342.81 46.8028C342.906 46.8011 342.971 46.864 342.973 46.96L343.35 68.5567L345.269 68.5232L344.892 46.9265C344.891 46.8305 344.954 46.7654 345.05 46.7637L348.889 46.6967C348.985 46.695 349.05 46.7579 349.052 46.8539L349.414 67.5867C349.459 70.1783 348.504 72.3073 346.616 72.3402L342.137 72.4184C340.249 72.4514 339.22 70.357 339.175 67.7654ZM350.827 46.6628L359.786 46.5065C359.882 46.5048 359.947 46.5677 359.949 46.6636L360.01 50.1831C360.012 50.2791 359.949 50.3442 359.853 50.3459L357.453 50.3878L357.83 71.9845C357.832 72.0805 357.769 72.1456 357.673 72.1472L353.834 72.2143C353.738 72.2159 353.673 72.1531 353.671 72.0571L353.294 50.4604L350.894 50.5022C350.798 50.5039 350.733 50.4411 350.732 50.3451L350.67 46.8256C350.669 46.7296 350.731 46.6645 350.827 46.6628ZM366.06 67.2961L365.698 46.5633C365.696 46.4673 365.759 46.4022 365.855 46.4005L369.695 46.3335C369.791 46.3318 369.856 46.3947 369.857 46.4907L370.234 68.0874L372.154 68.0539L371.777 46.4572C371.775 46.3612 371.838 46.2961 371.934 46.2944L375.774 46.2274C375.87 46.2257 375.935 46.2886 375.936 46.3846L376.298 67.1174C376.344 69.709 375.389 71.838 373.501 71.871L369.022 71.9492C367.134 71.9821 366.105 69.8877 366.06 67.2961ZM384.101 55.0754L384.011 49.9242L382.091 49.9577L382.172 54.597C382.178 54.949 382.157 55.5574 382.834 55.8656L385.416 57.1008C387.385 58.0266 388.333 59.1622 388.378 61.7538L388.46 66.4891C388.516 69.6886 387.91 71.6195 385.35 71.6641L381.511 71.7312C378.951 71.7758 378.278 69.8673 378.222 66.6678L378.132 61.5166C378.13 61.4206 378.193 61.3555 378.289 61.3538L382.129 61.2868C382.225 61.2851 382.29 61.348 382.291 61.444L382.404 67.875L384.323 67.8415L384.22 61.9224C384.214 61.5704 384.235 60.962 383.558 60.6537L380.976 59.4186C379.007 58.4928 378.059 57.3572 378.014 54.7656L377.954 51.3101C377.898 48.1106 378.504 46.1797 381.064 46.1351L384.904 46.068C387.463 46.0234 388.137 47.9319 388.192 51.1314L388.26 55.0028C388.262 55.0988 388.199 55.1639 388.103 55.1656L384.263 55.2326C384.167 55.2343 384.102 55.1714 384.101 55.0754Z" fill="white"/>
<rect x="432.666" y="46.5208" width="16" height="16" transform="rotate(44 432.666 46.5208)" fill="white"/>
<path d="M482.83 44.3588L486.67 44.2918C486.766 44.2901 486.831 44.353 486.833 44.449L487.274 69.7251C487.276 69.8211 487.213 69.8862 487.117 69.8879L483.277 69.9549C483.181 69.9566 483.116 69.8937 483.115 69.7977L482.927 59.0793L481.008 59.1128L481.195 69.8312C481.196 69.9272 481.134 69.9923 481.038 69.994L477.198 70.061C477.102 70.0627 477.037 69.9998 477.035 69.9038L476.594 44.6277C476.593 44.5317 476.655 44.4666 476.751 44.4649L480.591 44.3979C480.687 44.3962 480.752 44.4591 480.754 44.5551L480.941 55.2734L482.86 55.2399L482.673 44.5216C482.672 44.4256 482.735 44.3605 482.83 44.3588ZM499.725 58.146L496.685 58.1991L496.697 58.839C499.256 58.7943 499.93 60.7029 499.985 63.9024L499.997 64.5423C500.052 67.7418 499.446 69.6727 496.886 69.7173L492.407 69.7955C489.848 69.8402 489.174 67.9317 489.118 64.7322L489.019 59.037C488.989 57.3093 490.004 56.7795 490.482 56.7071L490.471 56.0672C489.99 56.0116 488.957 55.5176 488.927 53.7898L488.85 49.3745C488.794 46.175 489.401 44.2441 491.96 44.1994L495.8 44.1324C498.359 44.0877 499.033 45.9963 499.089 49.1958L499.139 52.0753C499.141 52.1713 499.078 52.2364 498.982 52.2381L495.142 52.3051C495.046 52.3068 494.981 52.2439 494.98 52.1479L494.907 47.9886L492.987 48.0221L493.099 54.4211L499.658 54.3066C499.754 54.3049 499.819 54.3678 499.821 54.4638L499.882 57.9833C499.884 58.0793 499.821 58.1444 499.725 58.146ZM495.86 65.8947L495.726 58.2158L493.166 58.2605L493.3 65.9394L495.86 65.8947ZM507.794 43.923L511.634 43.856C511.73 43.8544 511.795 43.9172 511.796 44.0132L512.238 69.2894C512.239 69.3853 512.176 69.4505 512.08 69.4521L508.241 69.5191C508.145 69.5208 508.08 69.4579 508.078 69.362L507.891 58.6436L505.971 58.6771L506.158 69.3955C506.16 69.4915 506.097 69.5566 506.001 69.5582L502.162 69.6253C502.066 69.6269 502.001 69.5641 501.999 69.4681L501.558 44.1919C501.556 44.0959 501.619 44.0308 501.715 44.0292L505.555 43.9621C505.651 43.9605 505.716 44.0233 505.717 44.1193L505.904 54.8377L507.824 54.8042L507.637 44.0858C507.635 43.9898 507.698 43.9247 507.794 43.923ZM523.787 52.6372L523.698 47.486L521.778 47.5195L521.859 52.1588C521.865 52.5108 521.844 53.1192 522.521 53.4275L525.103 54.6626C527.071 55.5884 528.019 56.724 528.065 59.3156L528.147 64.0509C528.203 67.2504 527.597 69.1813 525.037 69.226L521.198 69.293C518.638 69.3377 517.965 67.4291 517.909 64.2296L517.819 59.0784C517.817 58.9824 517.88 58.9173 517.976 58.9156L521.816 58.8486C521.912 58.8469 521.977 58.9098 521.978 59.0058L522.091 65.4368L524.01 65.4033L523.907 59.4842C523.901 59.1323 523.922 58.5238 523.245 58.2156L520.663 56.9804C518.694 56.0547 517.746 54.919 517.701 52.3274L517.641 48.8719C517.585 45.6724 518.191 43.7416 520.751 43.6969L524.59 43.6299C527.15 43.5852 527.823 45.4937 527.879 48.6932L527.947 52.5646C527.949 52.6606 527.886 52.7257 527.79 52.7274L523.95 52.7944C523.854 52.7961 523.789 52.7332 523.787 52.6372ZM535.96 43.4314L539.799 43.3644C539.895 43.3627 539.96 43.4256 539.962 43.5216L540.403 68.7977C540.405 68.8937 540.342 68.9588 540.246 68.9605L536.407 69.0275C536.311 69.0292 536.246 68.9663 536.244 68.8703L536.057 58.152L534.137 58.1855L534.324 68.9038C534.326 68.9998 534.263 69.0649 534.167 69.0666L530.328 69.1336C530.232 69.1353 530.167 69.0724 530.165 68.9764L529.724 43.7003C529.722 43.6043 529.785 43.5392 529.881 43.5375L533.72 43.4705C533.816 43.4688 533.881 43.5317 533.883 43.6277L534.07 54.3461L535.99 54.3125L535.803 43.5942C535.801 43.4982 535.864 43.4331 535.96 43.4314ZM551.364 43.3226L553.213 68.5741C553.215 68.7021 553.151 68.7352 553.055 68.7369L549.216 68.8039C549.12 68.8056 549.055 68.7747 549.053 68.6467L548.622 62.2533L546.382 62.2924L546.174 68.697C546.176 68.825 546.112 68.8581 546.016 68.8598L542.177 68.9268C542.081 68.9285 542.017 68.8976 542.014 68.7696L542.981 43.4689C542.979 43.3409 543.042 43.3078 543.138 43.3061L551.201 43.1654C551.297 43.1637 551.361 43.1946 551.364 43.3226ZM546.917 47.0807L546.539 58.4491L548.331 58.4178L547.556 47.0696L546.917 47.0807ZM558.818 68.6363L554.979 68.7033C554.883 68.705 554.818 68.6421 554.816 68.5461L554.375 43.27C554.373 43.174 554.436 43.1089 554.532 43.1072L558.371 43.0402C558.467 43.0385 558.533 43.1014 558.534 43.1974L558.719 53.7558L559.358 53.7446L561.222 43.1505C561.252 43.0539 561.315 42.9888 561.411 42.9872L565.378 42.9179C565.474 42.9162 565.54 42.9791 565.509 43.0756L563.106 55.7595L565.95 68.3518C565.985 68.4792 565.921 68.5123 565.825 68.514L561.858 68.5833C561.762 68.5849 561.697 68.5221 561.663 68.4266L559.431 57.904L558.791 57.9152L558.975 68.4735C558.977 68.5695 558.914 68.6346 558.818 68.6363ZM574.56 57.4799L571.52 57.5329L571.643 64.5719L575.642 64.5021C575.738 64.5004 575.804 64.5633 575.805 64.6592L575.867 68.1787C575.868 68.2747 575.805 68.3398 575.709 68.3415L567.711 68.4811C567.615 68.4828 567.55 68.4199 567.548 68.3239L567.107 43.0478C567.105 42.9518 567.168 42.8867 567.264 42.885L574.943 42.751C575.039 42.7493 575.104 42.8122 575.105 42.9081L575.167 46.4276C575.169 46.5236 575.106 46.5887 575.01 46.5904L571.33 46.6546L571.453 53.6935L574.493 53.6405C574.589 53.6388 574.654 53.7017 574.655 53.7977L574.717 57.3171C574.719 57.4131 574.656 57.4782 574.56 57.4799ZM588.402 67.9279C588.468 68.0228 588.405 68.1199 588.309 68.1215L584.406 68.1897C584.342 68.1908 584.245 68.1285 584.212 68.0651C583.785 67.4324 583.765 66.3126 583.754 65.7047L583.661 56.6809L581.741 56.7144L581.939 68.0727C581.941 68.1687 581.878 68.2338 581.782 68.2355L577.943 68.3025C577.847 68.3042 577.782 68.2413 577.78 68.1453L577.339 42.8692C577.337 42.7732 577.4 42.7081 577.496 42.7064L584.375 42.5863C586.935 42.5416 587.608 44.4502 587.664 47.6497L587.741 52.065C587.771 53.7928 586.788 54.322 586.277 54.3949L586.289 55.0348C586.77 55.0904 587.802 55.5845 587.833 57.3122L587.978 65.631C587.987 66.1749 588.007 67.2947 588.402 67.9279ZM581.674 52.875L583.594 52.8415L583.482 46.4425L581.562 46.476L581.674 52.875Z" fill="white"/>
<rect x="632.264" y="43.0369" width="16" height="16" transform="rotate(44 632.264 43.0369)" fill="white"/>
<path d="M685.66 40.9782L687.509 66.2298C687.512 66.3578 687.448 66.3909 687.352 66.3926L683.513 66.4596C683.417 66.4613 683.352 66.4304 683.35 66.3024L682.918 59.909L680.679 59.9481L680.471 66.3527C680.473 66.4806 680.409 66.5138 680.313 66.5154L676.474 66.5825C676.378 66.5841 676.313 66.5532 676.311 66.4253L677.278 41.1245C677.276 40.9966 677.339 40.9635 677.435 40.9618L685.498 40.821C685.594 40.8194 685.658 40.8502 685.66 40.9782ZM681.213 44.7364L680.836 56.1047L682.627 56.0735L681.853 44.7252L681.213 44.7364ZM698.997 45.7062L699.074 50.1215C699.104 51.8493 698.121 52.3785 697.61 52.4514L697.621 53.0913C698.103 53.1469 699.135 53.641 699.165 55.3687L699.265 61.0639C699.321 64.2634 698.714 66.1942 696.155 66.2389L689.276 66.359C689.18 66.3607 689.115 66.2978 689.113 66.2018L688.672 40.9257C688.67 40.8297 688.733 40.7646 688.829 40.7629L695.708 40.6428C698.268 40.5981 698.941 42.5067 698.997 45.7062ZM692.895 44.5325L693.004 50.7715L694.924 50.738L694.815 44.499L692.895 44.5325ZM695.128 62.4163L694.997 54.8974L693.077 54.9309L693.208 62.4498L695.128 62.4163ZM707.877 40.4304C710.437 40.3857 711.11 42.2943 711.166 45.4938L711.434 60.8514C711.49 64.051 710.884 65.9818 708.324 66.0265L704.485 66.0935C701.925 66.1382 701.252 64.2297 701.196 61.0302L700.928 45.6725C700.872 42.473 701.478 40.5421 704.038 40.4974L707.877 40.4304ZM707.297 62.2038L706.984 44.2866L705.065 44.3201L705.378 62.2374L707.297 62.2038ZM713.372 61.2337L713.011 40.5008C713.009 40.4048 713.072 40.3397 713.168 40.3381L717.007 40.271C717.103 40.2694 717.168 40.3322 717.17 40.4282L717.547 62.0249L719.467 61.9914L719.09 40.3947C719.088 40.2987 719.151 40.2336 719.247 40.2319L723.086 40.1649C723.182 40.1633 723.247 40.2261 723.249 40.3221L723.611 61.055C723.656 63.6466 722.701 65.7756 720.813 65.8085L716.334 65.8867C714.446 65.9196 713.418 63.8253 713.372 61.2337ZM725.025 40.1311L733.983 39.9747C734.079 39.973 734.144 40.0359 734.146 40.1319L734.208 43.6514C734.209 43.7474 734.146 43.8125 734.05 43.8141L731.651 43.856L732.028 65.4527C732.029 65.5487 731.967 65.6138 731.871 65.6155L728.031 65.6825C727.935 65.6842 727.87 65.6213 727.868 65.5253L727.491 43.9286L725.092 43.9705C724.996 43.9722 724.931 43.9093 724.929 43.8133L724.868 40.2939C724.866 40.1979 724.929 40.1328 725.025 40.1311ZM740.257 60.7644L739.895 40.0316C739.894 39.9356 739.956 39.8705 740.052 39.8688L743.892 39.8018C743.988 39.8001 744.053 39.863 744.055 39.959L744.432 61.5557L746.351 61.5222L745.974 39.9254C745.973 39.8295 746.036 39.7644 746.131 39.7627L749.971 39.6957C750.067 39.694 750.132 39.7569 750.134 39.8528L750.496 60.5857C750.541 63.1773 749.586 65.3063 747.698 65.3392L743.219 65.4174C741.331 65.4504 740.302 63.356 740.257 60.7644ZM758.298 48.5437L758.208 43.3925L756.288 43.426L756.369 48.0653C756.375 48.4172 756.354 49.0257 757.031 49.3339L759.613 50.569C761.582 51.4948 762.53 52.6304 762.575 55.2221L762.658 59.9573C762.714 63.1568 762.107 65.0877 759.548 65.1324L755.708 65.1994C753.149 65.2441 752.475 63.3356 752.419 60.136L752.329 54.9848C752.328 54.8888 752.391 54.8237 752.487 54.8221L756.326 54.755C756.422 54.7534 756.487 54.8162 756.489 54.9122L756.601 61.3432L758.521 61.3097L758.417 55.3906C758.411 55.0387 758.433 54.4302 757.755 54.122L755.173 52.8869C753.205 51.9611 752.257 50.8255 752.212 48.2339L752.151 44.7784C752.095 41.5789 752.702 39.648 755.261 39.6033L759.101 39.5363C761.66 39.4916 762.334 41.4002 762.39 44.5997L762.457 48.4711C762.459 48.5671 762.396 48.6322 762.3 48.6338L758.461 48.7009C758.365 48.7025 758.3 48.6397 758.298 48.5437Z" fill="white"/>
<rect x="806.863" y="39.9893" width="16" height="16" transform="rotate(44 806.863 39.9893)" fill="white"/>
<path d="M857.028 37.827L860.867 37.76C860.963 37.7584 861.028 37.8212 861.03 37.9172L861.471 63.1934C861.473 63.2893 861.41 63.3545 861.314 63.3561L857.475 63.4231C857.379 63.4248 857.313 63.362 857.312 63.266L857.125 52.5476L855.205 52.5811L855.392 63.2995C855.394 63.3955 855.331 63.4606 855.235 63.4622L851.395 63.5293C851.299 63.5309 851.234 63.4681 851.233 63.3721L850.791 38.0959C850.79 37.9999 850.853 37.9348 850.949 37.9332L854.788 37.8661C854.884 37.8645 854.949 37.9273 854.951 38.0233L855.138 48.7417L857.058 48.7082L856.871 37.9898C856.869 37.8938 856.932 37.8287 857.028 37.827ZM873.922 51.6143L870.883 51.6674L870.894 52.3073C873.453 52.2626 874.127 54.1711 874.183 57.3706L874.194 58.0105C874.25 61.21 873.643 63.1409 871.084 63.1856L866.604 63.2638C864.045 63.3085 863.371 61.3999 863.316 58.2004L863.216 52.5053C863.186 50.7775 864.201 50.2478 864.68 50.1754L864.669 49.5355C864.187 49.4799 863.155 48.9858 863.125 47.2581L863.047 42.8428C862.992 39.6432 863.598 37.7124 866.158 37.6677L869.997 37.6007C872.557 37.556 873.23 39.4645 873.286 42.664L873.336 45.5436C873.338 45.6396 873.275 45.7047 873.179 45.7064L869.34 45.7734C869.244 45.7751 869.178 45.7122 869.177 45.6162L869.104 41.4568L867.184 41.4903L867.296 47.8894L873.855 47.7749C873.951 47.7732 874.016 47.8361 874.018 47.9321L874.079 51.4515C874.081 51.5475 874.018 51.6126 873.922 51.6143ZM870.057 59.3629L869.923 51.6841L867.363 51.7288L867.497 59.4076L870.057 59.3629ZM881.991 37.3913L885.831 37.3243C885.927 37.3226 885.992 37.3855 885.994 37.4815L886.435 62.7576C886.437 62.8536 886.374 62.9187 886.278 62.9204L882.438 62.9874C882.342 62.9891 882.277 62.9262 882.275 62.8302L882.088 52.1119L880.169 52.1454L880.356 62.8637C880.357 62.9597 880.295 63.0248 880.199 63.0265L876.359 63.0935C876.263 63.0952 876.198 63.0323 876.196 62.9363L875.755 37.6602C875.754 37.5642 875.816 37.4991 875.912 37.4974L879.752 37.4304C879.848 37.4287 879.913 37.4916 879.915 37.5876L880.102 48.3059L882.021 48.2724L881.834 37.5541C881.833 37.4581 881.895 37.393 881.991 37.3913ZM897.985 46.1055L897.895 40.9543L895.975 40.9878L896.056 45.6271C896.062 45.979 896.041 46.5875 896.718 46.8957L899.3 48.1309C901.269 49.0566 902.217 50.1923 902.262 52.7839L902.345 57.5192C902.4 60.7187 901.794 62.6496 899.234 62.6942L895.395 62.7612C892.835 62.8059 892.162 60.8974 892.106 57.6979L892.016 52.5467C892.015 52.4507 892.077 52.3856 892.173 52.3839L896.013 52.3169C896.109 52.3152 896.174 52.3781 896.176 52.4741L896.288 58.9051L898.208 58.8716L898.104 52.9525C898.098 52.6005 898.119 51.9921 897.442 51.6838L894.86 50.4487C892.892 49.5229 891.944 48.3873 891.898 45.7957L891.838 42.3402C891.782 39.1407 892.389 37.2098 894.948 37.1651L898.788 37.0981C901.347 37.0534 902.021 38.962 902.077 42.1615L902.144 46.0329C902.146 46.1289 902.083 46.194 901.987 46.1957L898.147 46.2627C898.052 46.2644 897.986 46.2015 897.985 46.1055ZM910.157 36.8997L913.997 36.8327C914.093 36.831 914.158 36.8939 914.159 36.9898L914.601 62.266C914.602 62.362 914.539 62.4271 914.443 62.4288L910.604 62.4958C910.508 62.4974 910.443 62.4346 910.441 62.3386L910.254 51.6202L908.334 51.6537L908.521 62.3721C908.523 62.4681 908.46 62.5332 908.364 62.5349L904.525 62.6019C904.429 62.6036 904.364 62.5407 904.362 62.4447L903.921 37.1685C903.919 37.0726 903.982 37.0075 904.078 37.0058L907.918 36.9388C908.013 36.9371 908.079 37 908.08 37.0959L908.267 47.8143L910.187 47.7808L910 37.0624C909.998 36.9665 910.061 36.9013 910.157 36.8997ZM925.561 36.7908L927.41 62.0424C927.412 62.1704 927.349 62.2035 927.253 62.2052L923.413 62.2722C923.317 62.2739 923.253 62.243 923.25 62.115L922.819 55.7216L920.579 55.7607L920.371 62.1653C920.373 62.2932 920.31 62.3264 920.214 62.328L916.374 62.3951C916.278 62.3967 916.214 62.3658 916.212 62.2379L917.178 36.9371C917.176 36.8092 917.239 36.7761 917.335 36.7744L925.398 36.6336C925.494 36.632 925.559 36.6628 925.561 36.7908ZM921.114 40.549L920.736 51.9173L922.528 51.8861L921.754 40.5378L921.114 40.549ZM933.016 62.1046L929.176 62.1716C929.08 62.1733 929.015 62.1104 929.013 62.0144L928.572 36.7383C928.57 36.6423 928.633 36.5772 928.729 36.5755L932.569 36.5085C932.665 36.5068 932.73 36.5697 932.732 36.6657L932.916 47.224L933.556 47.2129L935.419 36.6187C935.449 36.5222 935.512 36.4571 935.608 36.4554L939.576 36.3862C939.672 36.3845 939.737 36.4474 939.706 36.5439L937.303 49.2278L940.148 61.8201C940.182 61.9475 940.118 61.9806 940.022 61.9823L936.055 62.0515C935.959 62.0532 935.894 61.9903 935.86 61.8949L933.628 51.3722L932.988 51.3834L933.173 61.9418C933.174 62.0378 933.112 62.1029 933.016 62.1046ZM948.757 50.9482L945.717 51.0012L945.84 58.0401L949.84 57.9703C949.936 57.9686 950.001 58.0315 950.002 58.1275L950.064 61.647C950.066 61.743 950.003 61.8081 949.907 61.8097L941.908 61.9494C941.812 61.951 941.747 61.8882 941.745 61.7922L941.304 36.516C941.302 36.42 941.365 36.3549 941.461 36.3533L949.14 36.2192C949.236 36.2175 949.301 36.2804 949.303 36.3764L949.364 39.8959C949.366 39.9919 949.303 40.057 949.207 40.0586L945.528 40.1229L945.65 47.1618L948.69 47.1087C948.786 47.1071 948.851 47.1699 948.853 47.2659L948.914 50.7854C948.916 50.8814 948.853 50.9465 948.757 50.9482ZM962.599 61.3962C962.665 61.491 962.603 61.5881 962.507 61.5898L958.603 61.6579C958.539 61.6591 958.442 61.5967 958.409 61.5333C957.982 60.9007 957.962 59.7808 957.952 59.1729L957.858 50.1492L955.938 50.1827L956.137 61.541C956.138 61.637 956.076 61.7021 955.98 61.7037L952.14 61.7708C952.044 61.7724 951.979 61.7096 951.977 61.6136L951.536 36.3374C951.534 36.2414 951.597 36.1763 951.693 36.1747L958.572 36.0546C961.132 36.0099 961.805 37.9184 961.861 41.118L961.938 45.5333C961.968 47.261 960.985 47.7903 960.475 47.8632L960.486 48.5031C960.967 48.5587 962 49.0527 962.03 50.7805L962.175 59.0992C962.185 59.6431 962.204 60.763 962.599 61.3962ZM955.871 46.3433L957.791 46.3098L957.679 39.9108L955.76 39.9443L955.871 46.3433Z" fill="white"/>
<rect x="1006.46" y="36.5051" width="16" height="16" transform="rotate(44 1006.46 36.5051)" fill="white"/>
<path d="M1059.86 34.4467L1061.71 59.6983C1061.71 59.8263 1061.65 59.8594 1061.55 59.8611L1057.71 59.9281C1057.62 59.9298 1057.55 59.8989 1057.55 59.7709L1057.12 53.3775L1054.88 53.4166L1054.67 59.8212C1054.67 59.9492 1054.61 59.9823 1054.51 59.9839L1050.67 60.051C1050.58 60.0526 1050.51 60.0218 1050.51 59.8938L1051.48 34.5931C1051.47 34.4651 1051.54 34.432 1051.63 34.4303L1059.7 34.2895C1059.79 34.2879 1059.86 34.3187 1059.86 34.4467ZM1055.41 38.2049L1055.03 49.5732L1056.83 49.542L1056.05 38.1937L1055.41 38.2049ZM1073.2 39.1747L1073.27 43.59C1073.3 45.3178 1072.32 45.847 1071.81 45.9199L1071.82 46.5598C1072.3 46.6154 1073.33 47.1095 1073.36 48.8372L1073.46 54.5324C1073.52 57.7319 1072.91 59.6628 1070.35 59.7074L1063.47 59.8275C1063.38 59.8292 1063.31 59.7663 1063.31 59.6703L1062.87 34.3942C1062.87 34.2982 1062.93 34.2331 1063.03 34.2314L1069.91 34.1113C1072.47 34.0666 1073.14 35.9752 1073.2 39.1747ZM1067.09 38.001L1067.2 44.2401L1069.12 44.2065L1069.01 37.9675L1067.09 38.001ZM1069.33 55.8848L1069.2 48.3659L1067.28 48.3994L1067.41 55.9183L1069.33 55.8848ZM1082.08 33.8989C1084.64 33.8542 1085.31 35.7628 1085.37 38.9623L1085.63 54.3199C1085.69 57.5195 1085.08 59.4503 1082.52 59.495L1078.68 59.562C1076.12 59.6067 1075.45 57.6982 1075.4 54.4987L1075.13 39.141C1075.07 35.9415 1075.68 34.0106 1078.24 33.9659L1082.08 33.8989ZM1081.5 55.6724L1081.18 37.7551L1079.26 37.7886L1079.58 55.7059L1081.5 55.6724ZM1087.57 54.7022L1087.21 33.9693C1087.21 33.8733 1087.27 33.8082 1087.37 33.8066L1091.21 33.7395C1091.3 33.7379 1091.37 33.8007 1091.37 33.8967L1091.75 55.4934L1093.67 55.4599L1093.29 33.8632C1093.29 33.7672 1093.35 33.7021 1093.45 33.7005L1097.29 33.6334C1097.38 33.6318 1097.45 33.6946 1097.45 33.7906L1097.81 54.5235C1097.86 57.1151 1096.9 59.2441 1095.01 59.277L1090.53 59.3552C1088.65 59.3881 1087.62 57.2938 1087.57 54.7022ZM1099.22 33.5996L1108.18 33.4432C1108.28 33.4416 1108.34 33.5044 1108.35 33.6004L1108.41 37.1199C1108.41 37.2159 1108.35 37.281 1108.25 37.2826L1105.85 37.3245L1106.23 58.9212C1106.23 59.0172 1106.17 59.0823 1106.07 59.084L1102.23 59.151C1102.13 59.1527 1102.07 59.0898 1102.07 58.9938L1101.69 37.3971L1099.29 37.439C1099.19 37.4407 1099.13 37.3778 1099.13 37.2818L1099.07 33.7624C1099.07 33.6664 1099.13 33.6013 1099.22 33.5996ZM1114.46 54.2329L1114.09 33.5001C1114.09 33.4041 1114.16 33.339 1114.25 33.3373L1118.09 33.2703C1118.19 33.2686 1118.25 33.3315 1118.25 33.4275L1118.63 55.0242L1120.55 54.9907L1120.17 33.3939C1120.17 33.298 1120.23 33.2329 1120.33 33.2312L1124.17 33.1642C1124.27 33.1625 1124.33 33.2254 1124.33 33.3213L1124.69 54.0542C1124.74 56.6458 1123.79 58.7748 1121.9 58.8077L1117.42 58.8859C1115.53 58.9189 1114.5 56.8245 1114.46 54.2329ZM1132.5 42.0122L1132.41 36.861L1130.49 36.8945L1130.57 41.5338C1130.57 41.8857 1130.55 42.4942 1131.23 42.8024L1133.81 44.0375C1135.78 44.9633 1136.73 46.099 1136.77 48.6906L1136.86 53.4258C1136.91 56.6253 1136.31 58.5562 1133.75 58.6009L1129.91 58.6679C1127.35 58.7126 1126.67 56.8041 1126.62 53.6045L1126.53 48.4533C1126.53 48.3573 1126.59 48.2922 1126.69 48.2906L1130.53 48.2235C1130.62 48.2219 1130.69 48.2847 1130.69 48.3807L1130.8 54.8118L1132.72 54.7782L1132.62 48.8591C1132.61 48.5072 1132.63 47.8987 1131.95 47.5905L1129.37 46.3554C1127.4 45.4296 1126.46 44.294 1126.41 41.7024L1126.35 38.2469C1126.29 35.0474 1126.9 33.1165 1129.46 33.0718L1133.3 33.0048C1135.86 32.9601 1136.53 34.8687 1136.59 38.0682L1136.66 41.9396C1136.66 42.0356 1136.6 42.1007 1136.5 42.1024L1132.66 42.1694C1132.56 42.171 1132.5 42.1082 1132.5 42.0122Z" fill="white"/>
<rect x="1181.06" y="33.4575" width="16" height="16" transform="rotate(44 1181.06 33.4575)" fill="white"/>
<path d="M1231.23 31.2953L1235.06 31.2283C1235.16 31.2266 1235.23 31.2895 1235.23 31.3855L1235.67 56.6616C1235.67 56.7576 1235.61 56.8227 1235.51 56.8244L1231.67 56.8914C1231.58 56.8931 1231.51 56.8302 1231.51 56.7342L1231.32 46.0159L1229.4 46.0494L1229.59 56.7677C1229.59 56.8637 1229.53 56.9288 1229.43 56.9305L1225.59 56.9975C1225.5 56.9992 1225.43 56.9363 1225.43 56.8403L1224.99 31.5642C1224.99 31.4682 1225.05 31.4031 1225.15 31.4014L1228.99 31.3344C1229.08 31.3327 1229.15 31.3956 1229.15 31.4916L1229.34 42.21L1231.25 42.1764L1231.07 31.4581C1231.07 31.3621 1231.13 31.297 1231.23 31.2953ZM1248.12 45.0826L1245.08 45.1356L1245.09 45.7755C1247.65 45.7308 1248.32 47.6394 1248.38 50.8389L1248.39 51.4788C1248.45 54.6783 1247.84 56.6092 1245.28 56.6539L1240.8 56.732C1238.24 56.7767 1237.57 54.8682 1237.51 51.6687L1237.41 45.9735C1237.38 44.2458 1238.4 43.716 1238.88 43.6436L1238.87 43.0037C1238.38 42.9481 1237.35 42.4541 1237.32 40.7263L1237.24 36.311C1237.19 33.1115 1237.8 31.1806 1240.35 31.1359L1244.19 31.0689C1246.75 31.0243 1247.43 32.9328 1247.48 36.1323L1247.53 39.0119C1247.54 39.1078 1247.47 39.173 1247.38 39.1746L1243.54 39.2416C1243.44 39.2433 1243.38 39.1805 1243.37 39.0845L1243.3 34.9251L1241.38 34.9586L1241.49 41.3576L1248.05 41.2431C1248.15 41.2415 1248.21 41.3043 1248.22 41.4003L1248.28 44.9198C1248.28 45.0158 1248.22 45.0809 1248.12 45.0826ZM1244.25 52.8312L1244.12 45.1524L1241.56 45.197L1241.69 52.8759L1244.25 52.8312ZM1256.19 30.8596L1260.03 30.7925C1260.12 30.7909 1260.19 30.8537 1260.19 30.9497L1260.63 56.2259C1260.63 56.3219 1260.57 56.387 1260.47 56.3887L1256.64 56.4557C1256.54 56.4573 1256.47 56.3945 1256.47 56.2985L1256.29 45.5801L1254.37 45.6136L1254.55 56.332C1254.55 56.428 1254.49 56.4931 1254.4 56.4948L1250.56 56.5618C1250.46 56.5635 1250.4 56.5006 1250.39 56.4046L1249.95 31.1284C1249.95 31.0325 1250.01 30.9674 1250.11 30.9657L1253.95 30.8987C1254.05 30.897 1254.11 30.9599 1254.11 31.0558L1254.3 41.7742L1256.22 41.7407L1256.03 31.0223C1256.03 30.9263 1256.09 30.8612 1256.19 30.8596ZM1272.18 39.5738L1272.09 34.4226L1270.17 34.4561L1270.25 39.0954C1270.26 39.4473 1270.24 40.0558 1270.92 40.364L1273.5 41.5991C1275.47 42.5249 1276.41 43.6605 1276.46 46.2521L1276.54 50.9874C1276.6 54.1869 1275.99 56.1178 1273.43 56.1625L1269.59 56.2295C1267.03 56.2742 1266.36 54.3656 1266.3 51.1661L1266.21 46.0149C1266.21 45.9189 1266.27 45.8538 1266.37 45.8522L1270.21 45.7851C1270.31 45.7835 1270.37 45.8463 1270.37 45.9423L1270.49 52.3733L1272.4 52.3398L1272.3 46.4207C1272.3 46.0688 1272.32 45.4603 1271.64 45.1521L1269.06 43.917C1267.09 42.9912 1266.14 41.8556 1266.1 39.2639L1266.04 35.8085C1265.98 32.609 1266.59 30.6781 1269.15 30.6334L1272.98 30.5664C1275.54 30.5217 1276.22 32.4302 1276.27 35.6298L1276.34 39.5012C1276.34 39.5972 1276.28 39.6623 1276.18 39.6639L1272.34 39.731C1272.25 39.7326 1272.18 39.6698 1272.18 39.5738ZM1284.35 30.3679L1288.19 30.3009C1288.29 30.2992 1288.35 30.3621 1288.36 30.4581L1288.8 55.7342C1288.8 55.8302 1288.74 55.8953 1288.64 55.897L1284.8 55.964C1284.71 55.9657 1284.64 55.9028 1284.64 55.8069L1284.45 45.0885L1282.53 45.122L1282.72 55.8404C1282.72 55.9363 1282.66 56.0015 1282.56 56.0031L1278.72 56.0701C1278.63 56.0718 1278.56 56.0089 1278.56 55.913L1278.12 30.6368C1278.12 30.5408 1278.18 30.4757 1278.28 30.474L1282.11 30.407C1282.21 30.4054 1282.28 30.4682 1282.28 30.5642L1282.46 41.2826L1284.38 41.2491L1284.2 30.5307C1284.2 30.4347 1284.26 30.3696 1284.35 30.3679ZM1299.76 30.2591L1301.61 55.5107C1301.61 55.6386 1301.55 55.6718 1301.45 55.6734L1297.61 55.7404C1297.51 55.7421 1297.45 55.7112 1297.45 55.5833L1297.02 49.1898L1294.78 49.2289L1294.57 55.6335C1294.57 55.7615 1294.51 55.7946 1294.41 55.7963L1290.57 55.8633C1290.48 55.865 1290.41 55.8341 1290.41 55.7061L1291.38 30.4054C1291.37 30.2774 1291.44 30.2443 1291.53 30.2426L1299.6 30.1019C1299.69 30.1002 1299.76 30.1311 1299.76 30.2591ZM1295.31 34.0173L1294.93 45.3856L1296.73 45.3543L1295.95 34.0061L1295.31 34.0173ZM1307.21 55.5728L1303.37 55.6399C1303.28 55.6415 1303.21 55.5787 1303.21 55.4827L1302.77 30.2065C1302.77 30.1105 1302.83 30.0454 1302.93 30.0438L1306.77 29.9767C1306.86 29.9751 1306.93 30.0379 1306.93 30.1339L1307.11 40.6923L1307.75 40.6811L1309.62 30.087C1309.65 29.9905 1309.71 29.9254 1309.81 29.9237L1313.77 29.8544C1313.87 29.8528 1313.93 29.9156 1313.9 30.0122L1311.5 42.696L1314.34 55.2883C1314.38 55.4157 1314.32 55.4489 1314.22 55.4505L1310.25 55.5198C1310.16 55.5215 1310.09 55.4586 1310.06 55.3632L1307.83 44.8405L1307.19 44.8517L1307.37 55.4101C1307.37 55.5061 1307.31 55.5712 1307.21 55.5728ZM1322.95 44.4164L1319.91 44.4695L1320.04 51.5084L1324.04 51.4386C1324.13 51.4369 1324.2 51.4998 1324.2 51.5958L1324.26 55.1152C1324.26 55.2112 1324.2 55.2763 1324.1 55.278L1316.11 55.4176C1316.01 55.4193 1315.94 55.3564 1315.94 55.2604L1315.5 29.9843C1315.5 29.8883 1315.56 29.8232 1315.66 29.8215L1323.34 29.6875C1323.43 29.6858 1323.5 29.7487 1323.5 29.8447L1323.56 33.3641C1323.56 33.4601 1323.5 33.5252 1323.4 33.5269L1319.72 33.5911L1319.85 40.6301L1322.89 40.577C1322.98 40.5753 1323.05 40.6382 1323.05 40.7342L1323.11 44.2536C1323.11 44.3496 1323.05 44.4147 1322.95 44.4164ZM1336.8 54.8644C1336.86 54.9593 1336.8 55.0564 1336.7 55.0581L1332.8 55.1262C1332.74 55.1273 1332.64 55.065 1332.61 55.0016C1332.18 54.3689 1332.16 53.2491 1332.15 52.6412L1332.06 43.6175L1330.14 43.651L1330.33 55.0092C1330.34 55.1052 1330.27 55.1703 1330.18 55.172L1326.34 55.239C1326.24 55.2407 1326.18 55.1778 1326.17 55.0818L1325.73 29.8057C1325.73 29.7097 1325.79 29.6446 1325.89 29.6429L1332.77 29.5228C1335.33 29.4782 1336 31.3867 1336.06 34.5862L1336.14 39.0015C1336.17 40.7293 1335.18 41.2585 1334.67 41.3314L1334.68 41.9713C1335.16 42.027 1336.2 42.521 1336.23 44.2487L1336.37 52.5675C1336.38 53.1114 1336.4 54.2312 1336.8 54.8644ZM1330.07 39.8115L1331.99 39.778L1331.88 33.379L1329.96 33.4125L1330.07 39.8115Z" fill="white"/>
<rect x="1380.66" y="29.9736" width="16" height="16" transform="rotate(44 1380.66 29.9736)" fill="white"/>
<path d="M1434.06 27.915L1435.91 53.1666C1435.91 53.2946 1435.84 53.3277 1435.75 53.3293L1431.91 53.3964C1431.81 53.398 1431.75 53.3672 1431.75 53.2392L1431.31 46.8457L1429.08 46.8848L1428.87 53.2894C1428.87 53.4174 1428.81 53.4505 1428.71 53.4522L1424.87 53.5192C1424.77 53.5209 1424.71 53.49 1424.71 53.362L1425.67 28.0613C1425.67 27.9333 1425.74 27.9002 1425.83 27.8985L1433.89 27.7578C1433.99 27.7561 1434.05 27.787 1434.06 27.915ZM1429.61 31.6732L1429.23 43.0415L1431.02 43.0102L1430.25 31.662L1429.61 31.6732ZM1447.39 32.643L1447.47 37.0583C1447.5 38.786 1446.52 39.3153 1446.01 39.3882L1446.02 40.0281C1446.5 40.0837 1447.53 40.5778 1447.56 42.3055L1447.66 48.0006C1447.72 51.2001 1447.11 53.131 1444.55 53.1757L1437.67 53.2958C1437.58 53.2974 1437.51 53.2346 1437.51 53.1386L1437.07 27.8624C1437.07 27.7664 1437.13 27.7013 1437.23 27.6997L1444.1 27.5796C1446.66 27.5349 1447.34 29.4434 1447.39 32.643ZM1441.29 31.4693L1441.4 37.7083L1443.32 37.6748L1443.21 31.4358L1441.29 31.4693ZM1443.52 49.353L1443.39 41.8342L1441.47 41.8677L1441.6 49.3865L1443.52 49.353ZM1456.27 27.3672C1458.83 27.3225 1459.51 29.231 1459.56 32.4305L1459.83 47.7882C1459.89 50.9877 1459.28 52.9186 1456.72 52.9633L1452.88 53.0303C1450.32 53.075 1449.65 51.1664 1449.59 47.9669L1449.32 32.6093C1449.27 29.4097 1449.87 27.4789 1452.43 27.4342L1456.27 27.3672ZM1455.69 49.1406L1455.38 31.2233L1453.46 31.2569L1453.77 49.1741L1455.69 49.1406ZM1461.77 48.1704L1461.41 27.4376C1461.41 27.3416 1461.47 27.2765 1461.56 27.2748L1465.4 27.2078C1465.5 27.2061 1465.56 27.269 1465.57 27.365L1465.94 48.9617L1467.86 48.9282L1467.49 27.3315C1467.48 27.2355 1467.55 27.1704 1467.64 27.1687L1471.48 27.1017C1471.58 27.1 1471.64 27.1629 1471.65 27.2589L1472.01 47.9917C1472.05 50.5833 1471.1 52.7123 1469.21 52.7453L1464.73 52.8235C1462.84 52.8564 1461.81 50.762 1461.77 48.1704ZM1473.42 27.0679L1482.38 26.9115C1482.48 26.9098 1482.54 26.9727 1482.54 27.0687L1482.6 30.5881C1482.61 30.6841 1482.54 30.7492 1482.45 30.7509L1480.05 30.7928L1480.42 52.3895C1480.43 52.4855 1480.36 52.5506 1480.27 52.5523L1476.43 52.6193C1476.33 52.621 1476.27 52.5581 1476.26 52.4621L1475.89 30.8654L1473.49 30.9073C1473.39 30.909 1473.33 30.8461 1473.33 30.7501L1473.26 27.2306C1473.26 27.1346 1473.33 27.0695 1473.42 27.0679ZM1488.65 47.7012L1488.29 26.9683C1488.29 26.8723 1488.35 26.8072 1488.45 26.8056L1492.29 26.7385C1492.38 26.7369 1492.45 26.7997 1492.45 26.8957L1492.83 48.4924L1494.75 48.4589L1494.37 26.8622C1494.37 26.7662 1494.43 26.7011 1494.53 26.6994L1498.37 26.6324C1498.46 26.6308 1498.53 26.6936 1498.53 26.7896L1498.89 47.5225C1498.94 50.1141 1497.98 52.243 1496.09 52.276L1491.62 52.3542C1489.73 52.3871 1488.7 50.2928 1488.65 47.7012ZM1506.69 35.4804L1506.6 30.3292L1504.68 30.3627L1504.77 35.002C1504.77 35.354 1504.75 35.9624 1505.43 36.2707L1508.01 37.5058C1509.98 38.4316 1510.93 39.5672 1510.97 42.1588L1511.05 46.8941C1511.11 50.0936 1510.5 52.0245 1507.94 52.0692L1504.1 52.1362C1501.55 52.1809 1500.87 50.2723 1500.82 47.0728L1500.73 41.9216C1500.72 41.8256 1500.79 41.7605 1500.88 41.7588L1504.72 41.6918C1504.82 41.6901 1504.88 41.753 1504.89 41.849L1505 48.28L1506.92 48.2465L1506.81 42.3274C1506.81 41.9755 1506.83 41.367 1506.15 41.0588L1503.57 39.8236C1501.6 38.8979 1500.65 37.7622 1500.61 35.1706L1500.55 31.7151C1500.49 28.5156 1501.1 26.5848 1503.66 26.5401L1507.5 26.4731C1510.06 26.4284 1510.73 28.3369 1510.79 31.5364L1510.85 35.4078C1510.86 35.5038 1510.79 35.5689 1510.7 35.5706L1506.86 35.6376C1506.76 35.6393 1506.7 35.5764 1506.69 35.4804Z" fill="white"/>
<rect width="1465.02" height="78" transform="translate(-13 66.0581)" fill="#1F936E"/>
<path d="M-6.12 92.4581H-2.28C-2.184 92.4581 -2.12 92.5221 -2.12 92.6181V117.898C-2.12 117.994 -2.184 118.058 -2.28 118.058H-6.12C-6.216 118.058 -6.28 117.994 -6.28 117.898V107.178H-8.2V117.898C-8.2 117.994 -8.264 118.058 -8.36 118.058H-12.2C-12.296 118.058 -12.36 117.994 -12.36 117.898V92.6181C-12.36 92.5221 -12.296 92.4581 -12.2 92.4581H-8.36C-8.264 92.4581 -8.2 92.5221 -8.2 92.6181V103.338H-6.28V92.6181C-6.28 92.5221 -6.216 92.4581 -6.12 92.4581ZM10.5313 106.538H7.49125V107.178C10.0513 107.178 10.6913 109.098 10.6913 112.298V112.938C10.6913 116.138 10.0513 118.058 7.49125 118.058H3.01125C0.45125 118.058 -0.18875 116.138 -0.18875 112.938V107.242C-0.18875 105.514 0.83525 105.002 1.31525 104.938V104.298C0.83525 104.234 -0.18875 103.722 -0.18875 101.994V97.5781C-0.18875 94.3781 0.45125 92.4581 3.01125 92.4581H6.85125C9.41125 92.4581 10.0513 94.3781 10.0513 97.5781V100.458C10.0513 100.554 9.98725 100.618 9.89125 100.618H6.05125C5.95525 100.618 5.89125 100.554 5.89125 100.458V96.2981H3.97125V102.698H10.5313C10.6273 102.698 10.6913 102.762 10.6913 102.858V106.378C10.6913 106.474 10.6273 106.538 10.5313 106.538ZM6.53125 114.218V106.538H3.97125V114.218H6.53125ZM18.8475 92.4581H22.6875C22.7835 92.4581 22.8475 92.5221 22.8475 92.6181V117.898C22.8475 117.994 22.7835 118.058 22.6875 118.058H18.8475C18.7515 118.058 18.6875 117.994 18.6875 117.898V107.178H16.7675V117.898C16.7675 117.994 16.7035 118.058 16.6075 118.058H12.7675C12.6715 118.058 12.6075 117.994 12.6075 117.898V92.6181C12.6075 92.5221 12.6715 92.4581 12.7675 92.4581H16.6075C16.7035 92.4581 16.7675 92.5221 16.7675 92.6181V103.338H18.6875V92.6181C18.6875 92.5221 18.7515 92.4581 18.8475 92.4581ZM34.6863 101.45V96.2981H32.7663V100.938C32.7663 101.29 32.7343 101.898 33.4063 102.218L35.9663 103.498C37.9183 104.458 38.8463 105.61 38.8463 108.202V112.938C38.8463 116.138 38.2063 118.058 35.6463 118.058H31.8063C29.2463 118.058 28.6063 116.138 28.6063 112.938V107.786C28.6063 107.69 28.6703 107.626 28.7663 107.626H32.6063C32.7023 107.626 32.7663 107.69 32.7663 107.786V114.218H34.6863V108.298C34.6863 107.946 34.7183 107.338 34.0463 107.018L31.4863 105.738C29.5343 104.778 28.6063 103.626 28.6063 101.034V97.5781C28.6063 94.3781 29.2463 92.4581 31.8063 92.4581H35.6463C38.2063 92.4581 38.8463 94.3781 38.8463 97.5781V101.45C38.8463 101.546 38.7823 101.61 38.6863 101.61H34.8463C34.7503 101.61 34.6863 101.546 34.6863 101.45ZM47.0175 92.4581H50.8575C50.9535 92.4581 51.0175 92.5221 51.0175 92.6181V117.898C51.0175 117.994 50.9535 118.058 50.8575 118.058H47.0175C46.9215 118.058 46.8575 117.994 46.8575 117.898V107.178H44.9375V117.898C44.9375 117.994 44.8735 118.058 44.7775 118.058H40.9375C40.8415 118.058 40.7775 117.994 40.7775 117.898V92.6181C40.7775 92.5221 40.8415 92.4581 40.9375 92.4581H44.7775C44.8735 92.4581 44.9375 92.5221 44.9375 92.6181V103.338H46.8575V92.6181C46.8575 92.5221 46.9215 92.4581 47.0175 92.4581ZM62.4207 92.6181L63.8287 117.898C63.8287 118.026 63.7647 118.058 63.6687 118.058H59.8287C59.7327 118.058 59.6687 118.026 59.6687 117.898L59.3487 111.498H57.1087L56.7887 117.898C56.7887 118.026 56.7247 118.058 56.6287 118.058H52.7887C52.6927 118.058 52.6287 118.026 52.6287 117.898L54.0367 92.6181C54.0367 92.4901 54.1007 92.4581 54.1967 92.4581H62.2607C62.3567 92.4581 62.4207 92.4901 62.4207 92.6181ZM57.9087 96.2981L57.3327 107.658H59.1247L58.5487 96.2981H57.9087ZM69.4325 118.058H65.5925C65.4965 118.058 65.4325 117.994 65.4325 117.898V92.6181C65.4325 92.5221 65.4965 92.4581 65.5925 92.4581H69.4325C69.5285 92.4581 69.5925 92.5221 69.5925 92.6181V103.178H70.2325L72.2805 92.6181C72.3125 92.5221 72.3765 92.4581 72.4725 92.4581H76.4405C76.5365 92.4581 76.6005 92.5221 76.5685 92.6181L73.9445 105.258L76.5685 117.898C76.6005 118.026 76.5365 118.058 76.4405 118.058H72.4725C72.3765 118.058 72.3125 117.994 72.2805 117.898L70.2325 107.338H69.5925V117.898C69.5925 117.994 69.5285 118.058 69.4325 118.058ZM85.3663 107.178H82.3263V114.218H86.3263C86.4223 114.218 86.4863 114.282 86.4863 114.378V117.898C86.4863 117.994 86.4223 118.058 86.3263 118.058H78.3263C78.2303 118.058 78.1663 117.994 78.1663 117.898V92.6181C78.1663 92.5221 78.2303 92.4581 78.3263 92.4581H86.0063C86.1023 92.4581 86.1663 92.5221 86.1663 92.6181V96.1381C86.1663 96.2341 86.1023 96.2981 86.0063 96.2981H82.3263V103.338H85.3663C85.4623 103.338 85.5263 103.402 85.5263 103.498V107.018C85.5263 107.114 85.4623 107.178 85.3663 107.178ZM99.024 117.866C99.088 117.962 99.024 118.058 98.928 118.058H95.024C94.96 118.058 94.864 117.994 94.832 117.93C94.416 117.29 94.416 116.17 94.416 115.562L94.48 106.538H92.56V117.898C92.56 117.994 92.496 118.058 92.4 118.058H88.56C88.464 118.058 88.4 117.994 88.4 117.898V92.6181C88.4 92.5221 88.464 92.4581 88.56 92.4581H95.44C98 92.4581 98.64 94.3781 98.64 97.5781V101.994C98.64 103.722 97.648 104.234 97.136 104.298V104.938C97.616 105.002 98.64 105.514 98.64 107.242V115.562C98.64 116.106 98.64 117.226 99.024 117.866ZM92.56 102.698H94.48V96.2981H92.56V102.698Z" fill="white"/>
<rect x="143.314" y="93.7444" width="16" height="16" transform="rotate(45 143.314 93.7444)" fill="white"/>
<path d="M196.739 92.6181L198.147 117.898C198.147 118.026 198.083 118.058 197.987 118.058H194.147C194.051 118.058 193.987 118.026 193.987 117.898L193.667 111.498H191.427L191.107 117.898C191.107 118.026 191.043 118.058 190.947 118.058H187.107C187.011 118.058 186.947 118.026 186.947 117.898L188.355 92.6181C188.355 92.4901 188.419 92.4581 188.515 92.4581H196.579C196.675 92.4581 196.739 92.4901 196.739 92.6181ZM192.227 96.2981L191.651 107.658H193.443L192.867 96.2981H192.227ZM209.991 97.5781V101.994C209.991 103.722 208.999 104.234 208.487 104.298V104.938C208.967 105.002 209.991 105.514 209.991 107.242V112.938C209.991 116.138 209.351 118.058 206.791 118.058H199.911C199.815 118.058 199.751 117.994 199.751 117.898V92.6181C199.751 92.5221 199.815 92.4581 199.911 92.4581H206.791C209.351 92.4581 209.991 94.3781 209.991 97.5781ZM203.911 96.2981V102.538H205.831V96.2981H203.911ZM205.831 114.218V106.698H203.911V114.218H205.831ZM218.962 92.4581C221.522 92.4581 222.162 94.3781 222.162 97.5781V112.938C222.162 116.138 221.522 118.058 218.962 118.058H215.122C212.562 118.058 211.922 116.138 211.922 112.938V97.5781C211.922 94.3781 212.562 92.4581 215.122 92.4581H218.962ZM218.002 114.218V96.2981H216.082V114.218H218.002ZM224.093 113.354V92.6181C224.093 92.5221 224.157 92.4581 224.253 92.4581H228.093C228.189 92.4581 228.253 92.5221 228.253 92.6181V114.218H230.173V92.6181C230.173 92.5221 230.237 92.4581 230.333 92.4581H234.173C234.269 92.4581 234.333 92.5221 234.333 92.6181V113.354C234.333 115.946 233.341 118.058 231.453 118.058H226.973C225.085 118.058 224.093 115.946 224.093 113.354ZM236.112 92.4581H245.072C245.168 92.4581 245.232 92.5221 245.232 92.6181V96.1381C245.232 96.2341 245.168 96.2981 245.072 96.2981H242.672V117.898C242.672 117.994 242.608 118.058 242.512 118.058H238.672C238.576 118.058 238.512 117.994 238.512 117.898V96.2981H236.112C236.016 96.2981 235.952 96.2341 235.952 96.1381V92.6181C235.952 92.5221 236.016 92.4581 236.112 92.4581ZM250.982 113.354V92.6181C250.982 92.5221 251.046 92.4581 251.142 92.4581H254.982C255.078 92.4581 255.142 92.5221 255.142 92.6181V114.218H257.062V92.6181C257.062 92.5221 257.126 92.4581 257.222 92.4581H261.062C261.158 92.4581 261.222 92.5221 261.222 92.6181V113.354C261.222 115.946 260.23 118.058 258.342 118.058H253.862C251.974 118.058 250.982 115.946 250.982 113.354ZM269.233 101.45V96.2981H267.313V100.938C267.313 101.29 267.281 101.898 267.953 102.218L270.513 103.498C272.465 104.458 273.393 105.61 273.393 108.202V112.938C273.393 116.138 272.753 118.058 270.193 118.058H266.353C263.793 118.058 263.153 116.138 263.153 112.938V107.786C263.153 107.69 263.217 107.626 263.313 107.626H267.153C267.249 107.626 267.313 107.69 267.313 107.786V114.218H269.233V108.298C269.233 107.946 269.265 107.338 268.593 107.018L266.033 105.738C264.081 104.778 263.153 103.626 263.153 101.034V97.5781C263.153 94.3781 263.793 92.4581 266.353 92.4581H270.193C272.753 92.4581 273.393 94.3781 273.393 97.5781V101.45C273.393 101.546 273.329 101.61 273.233 101.61H269.393C269.297 101.61 269.233 101.546 269.233 101.45Z" fill="white"/>
<rect x="317.941" y="93.7444" width="16" height="16" transform="rotate(45 317.941 93.7444)" fill="white"/>
<path d="M368.134 92.4581H371.974C372.07 92.4581 372.134 92.5221 372.134 92.6181V117.898C372.134 117.994 372.07 118.058 371.974 118.058H368.134C368.038 118.058 367.974 117.994 367.974 117.898V107.178H366.054V117.898C366.054 117.994 365.99 118.058 365.894 118.058H362.054C361.958 118.058 361.894 117.994 361.894 117.898V92.6181C361.894 92.5221 361.958 92.4581 362.054 92.4581H365.894C365.99 92.4581 366.054 92.5221 366.054 92.6181V103.338H367.974V92.6181C367.974 92.5221 368.038 92.4581 368.134 92.4581ZM384.785 106.538H381.745V107.178C384.305 107.178 384.945 109.098 384.945 112.298V112.938C384.945 116.138 384.305 118.058 381.745 118.058H377.265C374.705 118.058 374.065 116.138 374.065 112.938V107.242C374.065 105.514 375.089 105.002 375.569 104.938V104.298C375.089 104.234 374.065 103.722 374.065 101.994V97.5781C374.065 94.3781 374.705 92.4581 377.265 92.4581H381.105C383.665 92.4581 384.305 94.3781 384.305 97.5781V100.458C384.305 100.554 384.241 100.618 384.145 100.618H380.305C380.209 100.618 380.145 100.554 380.145 100.458V96.2981H378.225V102.698H384.785C384.881 102.698 384.945 102.762 384.945 102.858V106.378C384.945 106.474 384.881 106.538 384.785 106.538ZM380.785 114.218V106.538H378.225V114.218H380.785ZM393.101 92.4581H396.941C397.037 92.4581 397.101 92.5221 397.101 92.6181V117.898C397.101 117.994 397.037 118.058 396.941 118.058H393.101C393.005 118.058 392.941 117.994 392.941 117.898V107.178H391.021V117.898C391.021 117.994 390.957 118.058 390.861 118.058H387.021C386.925 118.058 386.861 117.994 386.861 117.898V92.6181C386.861 92.5221 386.925 92.4581 387.021 92.4581H390.861C390.957 92.4581 391.021 92.5221 391.021 92.6181V103.338H392.941V92.6181C392.941 92.5221 393.005 92.4581 393.101 92.4581ZM408.94 101.45V96.2981H407.02V100.938C407.02 101.29 406.988 101.898 407.66 102.218L410.22 103.498C412.172 104.458 413.1 105.61 413.1 108.202V112.938C413.1 116.138 412.46 118.058 409.9 118.058H406.06C403.5 118.058 402.86 116.138 402.86 112.938V107.786C402.86 107.69 402.924 107.626 403.02 107.626H406.86C406.956 107.626 407.02 107.69 407.02 107.786V114.218H408.94V108.298C408.94 107.946 408.972 107.338 408.3 107.018L405.74 105.738C403.788 104.778 402.86 103.626 402.86 101.034V97.5781C402.86 94.3781 403.5 92.4581 406.06 92.4581H409.9C412.46 92.4581 413.1 94.3781 413.1 97.5781V101.45C413.1 101.546 413.036 101.61 412.94 101.61H409.1C409.004 101.61 408.94 101.546 408.94 101.45ZM421.271 92.4581H425.111C425.207 92.4581 425.271 92.5221 425.271 92.6181V117.898C425.271 117.994 425.207 118.058 425.111 118.058H421.271C421.175 118.058 421.111 117.994 421.111 117.898V107.178H419.191V117.898C419.191 117.994 419.127 118.058 419.031 118.058H415.191C415.095 118.058 415.031 117.994 415.031 117.898V92.6181C415.031 92.5221 415.095 92.4581 415.191 92.4581H419.031C419.127 92.4581 419.191 92.5221 419.191 92.6181V103.338H421.111V92.6181C421.111 92.5221 421.175 92.4581 421.271 92.4581ZM436.675 92.6181L438.083 117.898C438.083 118.026 438.019 118.058 437.923 118.058H434.083C433.987 118.058 433.923 118.026 433.923 117.898L433.603 111.498H431.363L431.043 117.898C431.043 118.026 430.979 118.058 430.883 118.058H427.043C426.947 118.058 426.883 118.026 426.883 117.898L428.291 92.6181C428.291 92.4901 428.355 92.4581 428.451 92.4581H436.515C436.611 92.4581 436.675 92.4901 436.675 92.6181ZM432.163 96.2981L431.587 107.658H433.379L432.803 96.2981H432.163ZM443.686 118.058H439.846C439.75 118.058 439.686 117.994 439.686 117.898V92.6181C439.686 92.5221 439.75 92.4581 439.846 92.4581H443.686C443.782 92.4581 443.846 92.5221 443.846 92.6181V103.178H444.486L446.534 92.6181C446.566 92.5221 446.63 92.4581 446.726 92.4581H450.694C450.79 92.4581 450.854 92.5221 450.822 92.6181L448.198 105.258L450.822 117.898C450.854 118.026 450.79 118.058 450.694 118.058H446.726C446.63 118.058 446.566 117.994 446.534 117.898L444.486 107.338H443.846V117.898C443.846 117.994 443.782 118.058 443.686 118.058ZM459.62 107.178H456.58V114.218H460.58C460.676 114.218 460.74 114.282 460.74 114.378V117.898C460.74 117.994 460.676 118.058 460.58 118.058H452.58C452.484 118.058 452.42 117.994 452.42 117.898V92.6181C452.42 92.5221 452.484 92.4581 452.58 92.4581H460.26C460.356 92.4581 460.42 92.5221 460.42 92.6181V96.1381C460.42 96.2341 460.356 96.2981 460.26 96.2981H456.58V103.338H459.62C459.716 103.338 459.78 103.402 459.78 103.498V107.018C459.78 107.114 459.716 107.178 459.62 107.178ZM473.278 117.866C473.342 117.962 473.278 118.058 473.182 118.058H469.278C469.214 118.058 469.118 117.994 469.086 117.93C468.67 117.29 468.67 116.17 468.67 115.562L468.734 106.538H466.814V117.898C466.814 117.994 466.75 118.058 466.654 118.058H462.814C462.718 118.058 462.654 117.994 462.654 117.898V92.6181C462.654 92.5221 462.718 92.4581 462.814 92.4581H469.694C472.254 92.4581 472.894 94.3781 472.894 97.5781V101.994C472.894 103.722 471.902 104.234 471.39 104.298V104.938C471.87 105.002 472.894 105.514 472.894 107.242V115.562C472.894 116.106 472.894 117.226 473.278 117.866ZM466.814 102.698H468.734V96.2981H466.814V102.698Z" fill="white"/>
<rect x="517.568" y="93.7444" width="16" height="16" transform="rotate(45 517.568 93.7444)" fill="white"/>
<path d="M570.995 92.6181L572.403 117.898C572.403 118.026 572.339 118.058 572.243 118.058H568.403C568.307 118.058 568.243 118.026 568.243 117.898L567.923 111.498H565.683L565.363 117.898C565.363 118.026 565.299 118.058 565.203 118.058H561.363C561.267 118.058 561.203 118.026 561.203 117.898L562.611 92.6181C562.611 92.4901 562.675 92.4581 562.771 92.4581H570.835C570.931 92.4581 570.995 92.4901 570.995 92.6181ZM566.483 96.2981L565.907 107.658H567.699L567.123 96.2981H566.483ZM584.247 97.5781V101.994C584.247 103.722 583.255 104.234 582.743 104.298V104.938C583.223 105.002 584.247 105.514 584.247 107.242V112.938C584.247 116.138 583.607 118.058 581.047 118.058H574.167C574.071 118.058 574.007 117.994 574.007 117.898V92.6181C574.007 92.5221 574.071 92.4581 574.167 92.4581H581.047C583.607 92.4581 584.247 94.3781 584.247 97.5781ZM578.167 96.2981V102.538H580.087V96.2981H578.167ZM580.087 114.218V106.698H578.167V114.218H580.087ZM593.218 92.4581C595.778 92.4581 596.418 94.3781 596.418 97.5781V112.938C596.418 116.138 595.778 118.058 593.218 118.058H589.378C586.818 118.058 586.178 116.138 586.178 112.938V97.5781C586.178 94.3781 586.818 92.4581 589.378 92.4581H593.218ZM592.258 114.218V96.2981H590.338V114.218H592.258ZM598.349 113.354V92.6181C598.349 92.5221 598.413 92.4581 598.509 92.4581H602.349C602.445 92.4581 602.509 92.5221 602.509 92.6181V114.218H604.429V92.6181C604.429 92.5221 604.493 92.4581 604.589 92.4581H608.429C608.525 92.4581 608.589 92.5221 608.589 92.6181V113.354C608.589 115.946 607.597 118.058 605.709 118.058H601.229C599.341 118.058 598.349 115.946 598.349 113.354ZM610.368 92.4581H619.328C619.424 92.4581 619.488 92.5221 619.488 92.6181V96.1381C619.488 96.2341 619.424 96.2981 619.328 96.2981H616.928V117.898C616.928 117.994 616.864 118.058 616.768 118.058H612.928C612.832 118.058 612.768 117.994 612.768 117.898V96.2981H610.368C610.272 96.2981 610.208 96.2341 610.208 96.1381V92.6181C610.208 92.5221 610.272 92.4581 610.368 92.4581ZM625.238 113.354V92.6181C625.238 92.5221 625.302 92.4581 625.398 92.4581H629.238C629.334 92.4581 629.398 92.5221 629.398 92.6181V114.218H631.318V92.6181C631.318 92.5221 631.382 92.4581 631.478 92.4581H635.318C635.414 92.4581 635.478 92.5221 635.478 92.6181V113.354C635.478 115.946 634.486 118.058 632.598 118.058H628.118C626.23 118.058 625.238 115.946 625.238 113.354ZM643.489 101.45V96.2981H641.569V100.938C641.569 101.29 641.537 101.898 642.209 102.218L644.769 103.498C646.721 104.458 647.649 105.61 647.649 108.202V112.938C647.649 116.138 647.009 118.058 644.449 118.058H640.609C638.049 118.058 637.409 116.138 637.409 112.938V107.786C637.409 107.69 637.473 107.626 637.569 107.626H641.409C641.505 107.626 641.569 107.69 641.569 107.786V114.218H643.489V108.298C643.489 107.946 643.521 107.338 642.849 107.018L640.289 105.738C638.337 104.778 637.409 103.626 637.409 101.034V97.5781C637.409 94.3781 638.049 92.4581 640.609 92.4581H644.449C647.009 92.4581 647.649 94.3781 647.649 97.5781V101.45C647.649 101.546 647.585 101.61 647.489 101.61H643.649C643.553 101.61 643.489 101.546 643.489 101.45Z" fill="white"/>
<rect x="692.195" y="93.7444" width="16" height="16" transform="rotate(45 692.195 93.7444)" fill="white"/>
<path d="M742.39 92.4581H746.23C746.326 92.4581 746.39 92.5221 746.39 92.6181V117.898C746.39 117.994 746.326 118.058 746.23 118.058H742.39C742.294 118.058 742.23 117.994 742.23 117.898V107.178H740.31V117.898C740.31 117.994 740.246 118.058 740.15 118.058H736.31C736.214 118.058 736.15 117.994 736.15 117.898V92.6181C736.15 92.5221 736.214 92.4581 736.31 92.4581H740.15C740.246 92.4581 740.31 92.5221 740.31 92.6181V103.338H742.23V92.6181C742.23 92.5221 742.294 92.4581 742.39 92.4581ZM759.041 106.538H756.001V107.178C758.561 107.178 759.201 109.098 759.201 112.298V112.938C759.201 116.138 758.561 118.058 756.001 118.058H751.521C748.961 118.058 748.321 116.138 748.321 112.938V107.242C748.321 105.514 749.345 105.002 749.825 104.938V104.298C749.345 104.234 748.321 103.722 748.321 101.994V97.5781C748.321 94.3781 748.961 92.4581 751.521 92.4581H755.361C757.921 92.4581 758.561 94.3781 758.561 97.5781V100.458C758.561 100.554 758.497 100.618 758.401 100.618H754.561C754.465 100.618 754.401 100.554 754.401 100.458V96.2981H752.481V102.698H759.041C759.137 102.698 759.201 102.762 759.201 102.858V106.378C759.201 106.474 759.137 106.538 759.041 106.538ZM755.041 114.218V106.538H752.481V114.218H755.041ZM767.357 92.4581H771.197C771.293 92.4581 771.357 92.5221 771.357 92.6181V117.898C771.357 117.994 771.293 118.058 771.197 118.058H767.357C767.261 118.058 767.197 117.994 767.197 117.898V107.178H765.277V117.898C765.277 117.994 765.213 118.058 765.117 118.058H761.277C761.181 118.058 761.117 117.994 761.117 117.898V92.6181C761.117 92.5221 761.181 92.4581 761.277 92.4581H765.117C765.213 92.4581 765.277 92.5221 765.277 92.6181V103.338H767.197V92.6181C767.197 92.5221 767.261 92.4581 767.357 92.4581ZM783.196 101.45V96.2981H781.276V100.938C781.276 101.29 781.244 101.898 781.916 102.218L784.476 103.498C786.428 104.458 787.356 105.61 787.356 108.202V112.938C787.356 116.138 786.716 118.058 784.156 118.058H780.316C777.756 118.058 777.116 116.138 777.116 112.938V107.786C777.116 107.69 777.18 107.626 777.276 107.626H781.116C781.212 107.626 781.276 107.69 781.276 107.786V114.218H783.196V108.298C783.196 107.946 783.228 107.338 782.556 107.018L779.996 105.738C778.044 104.778 777.116 103.626 777.116 101.034V97.5781C777.116 94.3781 777.756 92.4581 780.316 92.4581H784.156C786.716 92.4581 787.356 94.3781 787.356 97.5781V101.45C787.356 101.546 787.292 101.61 787.196 101.61H783.356C783.26 101.61 783.196 101.546 783.196 101.45ZM795.527 92.4581H799.367C799.463 92.4581 799.527 92.5221 799.527 92.6181V117.898C799.527 117.994 799.463 118.058 799.367 118.058H795.527C795.431 118.058 795.367 117.994 795.367 117.898V107.178H793.447V117.898C793.447 117.994 793.383 118.058 793.287 118.058H789.447C789.351 118.058 789.287 117.994 789.287 117.898V92.6181C789.287 92.5221 789.351 92.4581 789.447 92.4581H793.287C793.383 92.4581 793.447 92.5221 793.447 92.6181V103.338H795.367V92.6181C795.367 92.5221 795.431 92.4581 795.527 92.4581ZM810.931 92.6181L812.339 117.898C812.339 118.026 812.275 118.058 812.179 118.058H808.339C808.243 118.058 808.179 118.026 808.179 117.898L807.859 111.498H805.619L805.299 117.898C805.299 118.026 805.235 118.058 805.139 118.058H801.299C801.203 118.058 801.139 118.026 801.139 117.898L802.547 92.6181C802.547 92.4901 802.611 92.4581 802.707 92.4581H810.771C810.867 92.4581 810.931 92.4901 810.931 92.6181ZM806.419 96.2981L805.843 107.658H807.635L807.059 96.2981H806.419ZM817.942 118.058H814.102C814.006 118.058 813.942 117.994 813.942 117.898V92.6181C813.942 92.5221 814.006 92.4581 814.102 92.4581H817.942C818.038 92.4581 818.102 92.5221 818.102 92.6181V103.178H818.742L820.79 92.6181C820.822 92.5221 820.886 92.4581 820.982 92.4581H824.95C825.046 92.4581 825.11 92.5221 825.078 92.6181L822.454 105.258L825.078 117.898C825.11 118.026 825.046 118.058 824.95 118.058H820.982C820.886 118.058 820.822 117.994 820.79 117.898L818.742 107.338H818.102V117.898C818.102 117.994 818.038 118.058 817.942 118.058ZM833.876 107.178H830.836V114.218H834.836C834.932 114.218 834.996 114.282 834.996 114.378V117.898C834.996 117.994 834.932 118.058 834.836 118.058H826.836C826.74 118.058 826.676 117.994 826.676 117.898V92.6181C826.676 92.5221 826.74 92.4581 826.836 92.4581H834.516C834.612 92.4581 834.676 92.5221 834.676 92.6181V96.1381C834.676 96.2341 834.612 96.2981 834.516 96.2981H830.836V103.338H833.876C833.972 103.338 834.036 103.402 834.036 103.498V107.018C834.036 107.114 833.972 107.178 833.876 107.178ZM847.534 117.866C847.598 117.962 847.534 118.058 847.438 118.058H843.534C843.47 118.058 843.374 117.994 843.342 117.93C842.926 117.29 842.926 116.17 842.926 115.562L842.99 106.538H841.07V117.898C841.07 117.994 841.006 118.058 840.91 118.058H837.07C836.974 118.058 836.91 117.994 836.91 117.898V92.6181C836.91 92.5221 836.974 92.4581 837.07 92.4581H843.95C846.51 92.4581 847.15 94.3781 847.15 97.5781V101.994C847.15 103.722 846.158 104.234 845.646 104.298V104.938C846.126 105.002 847.15 105.514 847.15 107.242V115.562C847.15 116.106 847.15 117.226 847.534 117.866ZM841.07 102.698H842.99V96.2981H841.07V102.698Z" fill="white"/>
<rect x="891.824" y="93.7444" width="16" height="16" transform="rotate(45 891.824 93.7444)" fill="white"/>
<path d="M945.249 92.6181L946.657 117.898C946.657 118.026 946.593 118.058 946.497 118.058H942.657C942.561 118.058 942.497 118.026 942.497 117.898L942.177 111.498H939.937L939.617 117.898C939.617 118.026 939.553 118.058 939.457 118.058H935.617C935.521 118.058 935.457 118.026 935.457 117.898L936.865 92.6181C936.865 92.4901 936.929 92.4581 937.025 92.4581H945.089C945.185 92.4581 945.249 92.4901 945.249 92.6181ZM940.737 96.2981L940.161 107.658H941.953L941.377 96.2981H940.737ZM958.5 97.5781V101.994C958.5 103.722 957.508 104.234 956.996 104.298V104.938C957.476 105.002 958.5 105.514 958.5 107.242V112.938C958.5 116.138 957.86 118.058 955.3 118.058H948.42C948.324 118.058 948.26 117.994 948.26 117.898V92.6181C948.26 92.5221 948.324 92.4581 948.42 92.4581H955.3C957.86 92.4581 958.5 94.3781 958.5 97.5781ZM952.42 96.2981V102.538H954.34V96.2981H952.42ZM954.34 114.218V106.698H952.42V114.218H954.34ZM967.472 92.4581C970.032 92.4581 970.672 94.3781 970.672 97.5781V112.938C970.672 116.138 970.032 118.058 967.472 118.058H963.632C961.072 118.058 960.432 116.138 960.432 112.938V97.5781C960.432 94.3781 961.072 92.4581 963.632 92.4581H967.472ZM966.512 114.218V96.2981H964.592V114.218H966.512ZM972.603 113.354V92.6181C972.603 92.5221 972.667 92.4581 972.763 92.4581H976.603C976.699 92.4581 976.763 92.5221 976.763 92.6181V114.218H978.683V92.6181C978.683 92.5221 978.747 92.4581 978.843 92.4581H982.683C982.779 92.4581 982.843 92.5221 982.843 92.6181V113.354C982.843 115.946 981.851 118.058 979.963 118.058H975.483C973.595 118.058 972.603 115.946 972.603 113.354ZM984.622 92.4581H993.582C993.678 92.4581 993.742 92.5221 993.742 92.6181V96.1381C993.742 96.2341 993.678 96.2981 993.582 96.2981H991.182V117.898C991.182 117.994 991.118 118.058 991.022 118.058H987.182C987.086 118.058 987.022 117.994 987.022 117.898V96.2981H984.622C984.526 96.2981 984.462 96.2341 984.462 96.1381V92.6181C984.462 92.5221 984.526 92.4581 984.622 92.4581ZM999.492 113.354V92.6181C999.492 92.5221 999.556 92.4581 999.652 92.4581H1003.49C1003.59 92.4581 1003.65 92.5221 1003.65 92.6181V114.218H1005.57V92.6181C1005.57 92.5221 1005.64 92.4581 1005.73 92.4581H1009.57C1009.67 92.4581 1009.73 92.5221 1009.73 92.6181V113.354C1009.73 115.946 1008.74 118.058 1006.85 118.058H1002.37C1000.48 118.058 999.492 115.946 999.492 113.354ZM1017.74 101.45V96.2981H1015.82V100.938C1015.82 101.29 1015.79 101.898 1016.46 102.218L1019.02 103.498C1020.97 104.458 1021.9 105.61 1021.9 108.202V112.938C1021.9 116.138 1021.26 118.058 1018.7 118.058H1014.86C1012.3 118.058 1011.66 116.138 1011.66 112.938V107.786C1011.66 107.69 1011.73 107.626 1011.82 107.626H1015.66C1015.76 107.626 1015.82 107.69 1015.82 107.786V114.218H1017.74V108.298C1017.74 107.946 1017.77 107.338 1017.1 107.018L1014.54 105.738C1012.59 104.778 1011.66 103.626 1011.66 101.034V97.5781C1011.66 94.3781 1012.3 92.4581 1014.86 92.4581H1018.7C1021.26 92.4581 1021.9 94.3781 1021.9 97.5781V101.45C1021.9 101.546 1021.84 101.61 1021.74 101.61H1017.9C1017.81 101.61 1017.74 101.546 1017.74 101.45Z" fill="white"/>
<rect x="1066.45" y="93.7444" width="16" height="16" transform="rotate(45 1066.45 93.7444)" fill="white"/>
<path d="M1116.65 92.4581H1120.49C1120.58 92.4581 1120.65 92.5221 1120.65 92.6181V117.898C1120.65 117.994 1120.58 118.058 1120.49 118.058H1116.65C1116.55 118.058 1116.49 117.994 1116.49 117.898V107.178H1114.57V117.898C1114.57 117.994 1114.5 118.058 1114.41 118.058H1110.57C1110.47 118.058 1110.41 117.994 1110.41 117.898V92.6181C1110.41 92.5221 1110.47 92.4581 1110.57 92.4581H1114.41C1114.5 92.4581 1114.57 92.5221 1114.57 92.6181V103.338H1116.49V92.6181C1116.49 92.5221 1116.55 92.4581 1116.65 92.4581ZM1133.3 106.538H1130.26V107.178C1132.82 107.178 1133.46 109.098 1133.46 112.298V112.938C1133.46 116.138 1132.82 118.058 1130.26 118.058H1125.78C1123.22 118.058 1122.58 116.138 1122.58 112.938V107.242C1122.58 105.514 1123.6 105.002 1124.08 104.938V104.298C1123.6 104.234 1122.58 103.722 1122.58 101.994V97.5781C1122.58 94.3781 1123.22 92.4581 1125.78 92.4581H1129.62C1132.18 92.4581 1132.82 94.3781 1132.82 97.5781V100.458C1132.82 100.554 1132.75 100.618 1132.66 100.618H1128.82C1128.72 100.618 1128.66 100.554 1128.66 100.458V96.2981H1126.74V102.698H1133.3C1133.39 102.698 1133.46 102.762 1133.46 102.858V106.378C1133.46 106.474 1133.39 106.538 1133.3 106.538ZM1129.3 114.218V106.538H1126.74V114.218H1129.3ZM1141.61 92.4581H1145.45C1145.55 92.4581 1145.61 92.5221 1145.61 92.6181V117.898C1145.61 117.994 1145.55 118.058 1145.45 118.058H1141.61C1141.52 118.058 1141.45 117.994 1141.45 117.898V107.178H1139.53V117.898C1139.53 117.994 1139.47 118.058 1139.37 118.058H1135.53C1135.44 118.058 1135.37 117.994 1135.37 117.898V92.6181C1135.37 92.5221 1135.44 92.4581 1135.53 92.4581H1139.37C1139.47 92.4581 1139.53 92.5221 1139.53 92.6181V103.338H1141.45V92.6181C1141.45 92.5221 1141.52 92.4581 1141.61 92.4581ZM1157.45 101.45V96.2981H1155.53V100.938C1155.53 101.29 1155.5 101.898 1156.17 102.218L1158.73 103.498C1160.68 104.458 1161.61 105.61 1161.61 108.202V112.938C1161.61 116.138 1160.97 118.058 1158.41 118.058H1154.57C1152.01 118.058 1151.37 116.138 1151.37 112.938V107.786C1151.37 107.69 1151.44 107.626 1151.53 107.626H1155.37C1155.47 107.626 1155.53 107.69 1155.53 107.786V114.218H1157.45V108.298C1157.45 107.946 1157.48 107.338 1156.81 107.018L1154.25 105.738C1152.3 104.778 1151.37 103.626 1151.37 101.034V97.5781C1151.37 94.3781 1152.01 92.4581 1154.57 92.4581H1158.41C1160.97 92.4581 1161.61 94.3781 1161.61 97.5781V101.45C1161.61 101.546 1161.55 101.61 1161.45 101.61H1157.61C1157.52 101.61 1157.45 101.546 1157.45 101.45ZM1169.78 92.4581H1173.62C1173.72 92.4581 1173.78 92.5221 1173.78 92.6181V117.898C1173.78 117.994 1173.72 118.058 1173.62 118.058H1169.78C1169.69 118.058 1169.62 117.994 1169.62 117.898V107.178H1167.7V117.898C1167.7 117.994 1167.64 118.058 1167.54 118.058H1163.7C1163.61 118.058 1163.54 117.994 1163.54 117.898V92.6181C1163.54 92.5221 1163.61 92.4581 1163.7 92.4581H1167.54C1167.64 92.4581 1167.7 92.5221 1167.7 92.6181V103.338H1169.62V92.6181C1169.62 92.5221 1169.69 92.4581 1169.78 92.4581ZM1185.19 92.6181L1186.59 117.898C1186.59 118.026 1186.53 118.058 1186.43 118.058H1182.59C1182.5 118.058 1182.43 118.026 1182.43 117.898L1182.11 111.498H1179.87L1179.55 117.898C1179.55 118.026 1179.49 118.058 1179.39 118.058H1175.55C1175.46 118.058 1175.39 118.026 1175.39 117.898L1176.8 92.6181C1176.8 92.4901 1176.87 92.4581 1176.96 92.4581H1185.03C1185.12 92.4581 1185.19 92.4901 1185.19 92.6181ZM1180.67 96.2981L1180.1 107.658H1181.89L1181.31 96.2981H1180.67ZM1192.2 118.058H1188.36C1188.26 118.058 1188.2 117.994 1188.2 117.898V92.6181C1188.2 92.5221 1188.26 92.4581 1188.36 92.4581H1192.2C1192.29 92.4581 1192.36 92.5221 1192.36 92.6181V103.178H1193L1195.05 92.6181C1195.08 92.5221 1195.14 92.4581 1195.24 92.4581H1199.21C1199.3 92.4581 1199.37 92.5221 1199.33 92.6181L1196.71 105.258L1199.33 117.898C1199.37 118.026 1199.3 118.058 1199.21 118.058H1195.24C1195.14 118.058 1195.08 117.994 1195.05 117.898L1193 107.338H1192.36V117.898C1192.36 117.994 1192.29 118.058 1192.2 118.058ZM1208.13 107.178H1205.09V114.218H1209.09C1209.19 114.218 1209.25 114.282 1209.25 114.378V117.898C1209.25 117.994 1209.19 118.058 1209.09 118.058H1201.09C1201 118.058 1200.93 117.994 1200.93 117.898V92.6181C1200.93 92.5221 1201 92.4581 1201.09 92.4581H1208.77C1208.87 92.4581 1208.93 92.5221 1208.93 92.6181V96.1381C1208.93 96.2341 1208.87 96.2981 1208.77 96.2981H1205.09V103.338H1208.13C1208.23 103.338 1208.29 103.402 1208.29 103.498V107.018C1208.29 107.114 1208.23 107.178 1208.13 107.178ZM1221.79 117.866C1221.85 117.962 1221.79 118.058 1221.69 118.058H1217.79C1217.73 118.058 1217.63 117.994 1217.6 117.93C1217.18 117.29 1217.18 116.17 1217.18 115.562L1217.25 106.538H1215.33V117.898C1215.33 117.994 1215.26 118.058 1215.17 118.058H1211.33C1211.23 118.058 1211.17 117.994 1211.17 117.898V92.6181C1211.17 92.5221 1211.23 92.4581 1211.33 92.4581H1218.21C1220.77 92.4581 1221.41 94.3781 1221.41 97.5781V101.994C1221.41 103.722 1220.41 104.234 1219.9 104.298V104.938C1220.38 105.002 1221.41 105.514 1221.41 107.242V115.562C1221.41 116.106 1221.41 117.226 1221.79 117.866ZM1215.33 102.698H1217.25V96.2981H1215.33V102.698Z" fill="white"/>
<rect x="1266.08" y="93.7444" width="16" height="16" transform="rotate(45 1266.08 93.7444)" fill="white"/>
<path d="M1319.5 92.6181L1320.91 117.898C1320.91 118.026 1320.85 118.058 1320.75 118.058H1316.91C1316.82 118.058 1316.75 118.026 1316.75 117.898L1316.43 111.498H1314.19L1313.87 117.898C1313.87 118.026 1313.81 118.058 1313.71 118.058H1309.87C1309.78 118.058 1309.71 118.026 1309.71 117.898L1311.12 92.6181C1311.12 92.4901 1311.18 92.4581 1311.28 92.4581H1319.34C1319.44 92.4581 1319.5 92.4901 1319.5 92.6181ZM1314.99 96.2981L1314.42 107.658H1316.21L1315.63 96.2981H1314.99ZM1332.76 97.5781V101.994C1332.76 103.722 1331.76 104.234 1331.25 104.298V104.938C1331.73 105.002 1332.76 105.514 1332.76 107.242V112.938C1332.76 116.138 1332.12 118.058 1329.56 118.058H1322.68C1322.58 118.058 1322.52 117.994 1322.52 117.898V92.6181C1322.52 92.5221 1322.58 92.4581 1322.68 92.4581H1329.56C1332.12 92.4581 1332.76 94.3781 1332.76 97.5781ZM1326.68 96.2981V102.538H1328.6V96.2981H1326.68ZM1328.6 114.218V106.698H1326.68V114.218H1328.6ZM1341.73 92.4581C1344.29 92.4581 1344.93 94.3781 1344.93 97.5781V112.938C1344.93 116.138 1344.29 118.058 1341.73 118.058H1337.89C1335.33 118.058 1334.69 116.138 1334.69 112.938V97.5781C1334.69 94.3781 1335.33 92.4581 1337.89 92.4581H1341.73ZM1340.77 114.218V96.2981H1338.85V114.218H1340.77ZM1346.86 113.354V92.6181C1346.86 92.5221 1346.92 92.4581 1347.02 92.4581H1350.86C1350.95 92.4581 1351.02 92.5221 1351.02 92.6181V114.218H1352.94V92.6181C1352.94 92.5221 1353 92.4581 1353.1 92.4581H1356.94C1357.03 92.4581 1357.1 92.5221 1357.1 92.6181V113.354C1357.1 115.946 1356.11 118.058 1354.22 118.058H1349.74C1347.85 118.058 1346.86 115.946 1346.86 113.354ZM1358.88 92.4581H1367.84C1367.93 92.4581 1368 92.5221 1368 92.6181V96.1381C1368 96.2341 1367.93 96.2981 1367.84 96.2981H1365.44V117.898C1365.44 117.994 1365.37 118.058 1365.28 118.058H1361.44C1361.34 118.058 1361.28 117.994 1361.28 117.898V96.2981H1358.88C1358.78 96.2981 1358.72 96.2341 1358.72 96.1381V92.6181C1358.72 92.5221 1358.78 92.4581 1358.88 92.4581ZM1373.75 113.354V92.6181C1373.75 92.5221 1373.81 92.4581 1373.91 92.4581H1377.75C1377.84 92.4581 1377.91 92.5221 1377.91 92.6181V114.218H1379.83V92.6181C1379.83 92.5221 1379.89 92.4581 1379.99 92.4581H1383.83C1383.92 92.4581 1383.99 92.5221 1383.99 92.6181V113.354C1383.99 115.946 1383 118.058 1381.11 118.058H1376.63C1374.74 118.058 1373.75 115.946 1373.75 113.354ZM1392 101.45V96.2981H1390.08V100.938C1390.08 101.29 1390.05 101.898 1390.72 102.218L1393.28 103.498C1395.23 104.458 1396.16 105.61 1396.16 108.202V112.938C1396.16 116.138 1395.52 118.058 1392.96 118.058H1389.12C1386.56 118.058 1385.92 116.138 1385.92 112.938V107.786C1385.92 107.69 1385.98 107.626 1386.08 107.626H1389.92C1390.01 107.626 1390.08 107.69 1390.08 107.786V114.218H1392V108.298C1392 107.946 1392.03 107.338 1391.36 107.018L1388.8 105.738C1386.85 104.778 1385.92 103.626 1385.92 101.034V97.5781C1385.92 94.3781 1386.56 92.4581 1389.12 92.4581H1392.96C1395.52 92.4581 1396.16 94.3781 1396.16 97.5781V101.45C1396.16 101.546 1396.09 101.61 1396 101.61H1392.16C1392.06 101.61 1392 101.546 1392 101.45Z" fill="white"/>
<rect x="1440.71" y="93.7444" width="16" height="16" transform="rotate(45 1440.71 93.7444)" fill="white"/>
</svg>
