<?xml version="1.0" encoding="utf-8"?>
<!-- Generator: Adobe Illustrator 24.3.0, SVG Export Plug-In . SVG Version: 6.00 Build 0)  -->
<svg version="1.1" id="Layer_1" xmlns="http://www.w3.org/2000/svg" xmlns:xlink="http://www.w3.org/1999/xlink" x="0px" y="0px"
	 viewBox="0 0 24 24" style="enable-background:new 0 0 24 24;" xml:space="preserve">
<style type="text/css">
	.st0{fill:#FFFFFF;}
</style>
<g>
	<defs>
		<path id="SVGID_1_" d="M12,0L12,0c6.6,0,12,5.4,12,12l0,0c0,6.6-5.4,12-12,12l0,0C5.4,24,0,18.6,0,12l0,0C0,5.4,5.4,0,12,0z"/>
	</defs>
	<use xlink:href="#SVGID_1_"  style="overflow:visible;fill:#005430;"/>
	<clipPath id="SVGID_2_">
		<use xlink:href="#SVGID_1_"  style="overflow:visible;"/>
	</clipPath>
</g>
<g id="white" transform="scale(.375)">
	<g id="shahada">
		<g transform="matrix(7.3042,0,0,-6.7531,1800,635.53)">
			<path class="st0" d="M-238.5,90c0,0.2-0.1,0.7-0.1,0.8c0,0.2,0,0.3,0,0.3c0,0,0.1,0,0.1-0.1c0,0,0,0.1,0,0.1c0,0-0.1,0.1-0.1,0.2
				c0,0,0,0,0,0.1c0,0-0.1-0.1-0.1-0.1c0,0,0,0,0-0.1c0,0,0-0.4,0.1-0.6c0-0.2,0.1-0.6,0.1-0.9c0-0.1,0-0.2,0-0.2
				c0-0.1-0.1-0.1-0.2-0.2c-0.2-0.1-0.4-0.2-0.5-0.3c-0.1,0,0,0,0,0c0.1,0,0.3,0.1,0.5,0.1c0.1,0.1,0.2,0.2,0.3,0.3
				C-238.5,89.6-238.5,89.8-238.5,90"/>
		</g>
		<g transform="matrix(7.3042,0,0,-6.7531,1709.3,422.03)">
			<path class="st0" d="M-226.6,59.7c0,0,0.1,0,0.2,0c0,0-0.2-0.1-0.2-0.1c0,0,0.1,0,0.1,0c0,0,0,0,0,0c0,0,0.1,0.1,0.1,0.1
				C-226.4,59.8-226.5,59.8-226.6,59.7C-226.6,59.8-226.6,59.7-226.6,59.7C-226.6,59.7-226.6,59.7-226.6,59.7"/>
		</g>
		<g transform="matrix(7.3042,0,0,-6.7531,1747.6,588.62)">
			<path class="st0" d="M-231.6,83.3c0,0.1,0,0.2,0,0.3c0,0.1-0.1,0.2-0.2,0.2l0-0.1c0,0,0.1,0,0.1-0.2
				C-231.6,83.5-231.6,83.4-231.6,83.3C-231.6,83.2-231.6,83.3-231.6,83.3"/>
		</g>
		<g transform="matrix(7.3042,0,0,-6.7531,1602.4,672.64)">
			<path class="st0" d="M-212.6,95.2c0,0.1,0,0.2,0,0.3c0,0.1-0.1,0.2-0.2,0.2l0-0.1c0,0,0.1,0,0.1-0.1
				C-212.6,95.4-212.6,95.3-212.6,95.2C-212.6,95.2-212.6,95.2-212.6,95.2"/>
		</g>
		<g transform="matrix(7.3042,0,0,-6.7531,1098.3,444.51)">
			<path class="st0" d="M-146.6,62.9c0-0.1,0-0.2,0-0.3c0,0,0,0,0,0C-146.5,62.7-146.5,62.8-146.6,62.9c0,0.2-0.1,0.2-0.1,0.2l0-0.1
				C-146.7,63-146.6,63-146.6,62.9"/>
		</g>
		<g transform="matrix(7.3042,0,0,-6.7531,758,449.86)">
			<path class="st0" d="M-102,63.7c0-0.1,0-0.2,0-0.3c0,0,0,0,0,0C-102,63.5-102,63.6-102,63.7c0,0.2,0,0.2-0.1,0.3l0-0.1
				C-102.2,63.8-102.1,63.8-102,63.7"/>
		</g>
		<g transform="matrix(7.3042,0,0,-6.7531,852.07,698.62)">
			<path class="st0" d="M-114.3,98.9c0,0.1,0.1,0.1,0.1,0.2c0,0.1,0,0.2,0,0.3c0.1,0,0.2,0.1,0.3,0.1c0-0.1,0-0.2,0.2-0.2
				c0-0.1,0-0.2,0-0.3c0-0.1,0-0.3,0-0.3c0,0,0,0,0,0c0,0.1,0,0.3,0,0.5c0,0,0,0.1,0,0.1c0.1,0,0.1,0.1,0.1,0.2
				c0-0.1,0.2-0.1,0.3-0.1c0.1,0,0.1,0.1,0.1,0.2c0,0.1,0,0.2,0,0.2c0,0,0-0.2,0-0.2s0,0,0-0.1c0,0-0.1,0-0.2,0
				c-0.1,0-0.1,0.1-0.1,0.1c0,0,0,0,0,0.1c0,0,0,0,0,0c0,0,0-0.1-0.1-0.1c0,0-0.1-0.1-0.1-0.1c0,0.1,0,0.3,0,0.4
				c0,0.1-0.1,0.5-0.1,0.5c0,0,0,0.1,0,0.1c0,0,0,0,0,0c0,0,0-0.1,0.1-0.1c0,0,0,0.1,0,0.1c0,0.1-0.1,0.3-0.1,0.3
				c0,0-0.1-0.1-0.1-0.1c0,0,0,0,0-0.1c0,0,0-0.2,0-0.4c0-0.1,0-0.3,0-0.3c0-0.1,0-0.3,0-0.4c-0.1,0-0.1,0.1-0.1,0.1
				c0,0,0,0.1,0,0.1c0,0-0.1,0-0.2-0.1c0,0-0.1,0-0.1-0.1c0,0.1,0,0.2,0,0.3l0,0c0.1,0,0.2,0.1,0.2,0.1c0,0.1,0.1,0.2,0.1,0.3
				c0,0.1-0.1,0.3-0.1,0.3c0,0.1,0,0.1,0,0.1c0,0,0,0,0.1,0c0,0,0,0,0,0.1c0,0-0.1,0.2-0.1,0.2c0,0,0-0.1,0-0.2c0,0,0,0,0-0.1
				c0,0,0-0.2,0-0.2c0-0.1,0.1-0.2,0.1-0.3c0,0-0.1-0.1-0.2-0.1c0,0.1,0,0.3,0,0.4c0,0,0,0.1,0,0.1c0,0,0,0,0,0c0,0,0,0,0,0
				c0,0,0,0,0,0.1c0,0.1-0.1,0.3-0.1,0.3c0,0,0-0.1-0.1-0.1c0,0,0,0,0-0.1c0-0.1,0-0.3,0-0.6c-0.1,0-0.1,0.1-0.1,0.2
				c0,0.1,0,0.2,0,0.4c0,0.1,0,0.1-0.1,0.2c0,0,0-0.2,0-0.2c0,0,0.1-0.2,0.1-0.3c0-0.1,0-0.2-0.1-0.3c-0.1-0.1-0.3,0-0.4,0.1
				c0,0.1,0.1,0.4,0.1,0.5c0,0.1,0,0.1,0,0.1c0,0-0.1-0.1-0.1-0.2c-0.1-0.1-0.1-0.3-0.1-0.4c0-0.1-0.1-0.2-0.1-0.2
				c-0.1,0-0.1,0.1-0.1,0.2c0,0.1,0,0.2,0,0.3c0,0.1,0,0.1,0-0.1c0-0.1,0-0.2,0-0.4c0-0.1,0.1-0.2,0.2-0.2c0.1,0,0.1,0.2,0.2,0.3
				c0,0.1,0.1,0.4,0.2,0.4c0,0,0-0.2-0.1-0.3c0-0.1,0-0.3,0.2-0.4c0.2,0,0.3,0.1,0.3,0.2c0,0.1,0.1,0.2,0.1,0.2
				c0-0.1,0.1-0.3,0.2-0.3l0,0c0-0.1,0-0.2,0-0.3c0,0-0.1,0-0.1,0c0,0,0,0,0,0c0,0.1-0.1,0.2-0.2,0.2c-0.1,0-0.2-0.2-0.2-0.3
				c0-0.1,0-0.1,0.2-0.1c0.1,0,0.1,0,0.2,0c0,0,0-0.1,0-0.1c0-0.1-0.4-0.3-0.6-0.4c-0.3,0-0.3,0.1-0.3,0.3c0,0.1,0.1,0.2,0.1,0.3
				c0.1,0,0.1,0.1,0.1,0.2c0,0,0,0,0,0c0,0,0,0,0,0c0,0,0,0.1,0,0.1c0,0,0,0-0.1,0c0,0.1,0,0.2,0,0.2c0,0-0.1,0-0.1-0.1
				c0,0,0,0,0-0.1c0,0,0,0,0-0.1c0,0,0,0,0.1,0c-0.1-0.1-0.2-0.2-0.3-0.2c0,0,0,0,0,0l0,0c-0.1,0-0.2-0.1-0.3-0.2c0,0,0,0,0,0
				c0,0,0,0,0.1,0c0,0,0.1,0.1,0.1,0.1c0,0,0-0.1,0-0.1c-0.1-0.2-0.2-0.5,0.1-0.7c0.2-0.2,0.6-0.1,0.8,0.1
				C-114.5,98.7-114.4,98.8-114.3,98.9 M-115.3,99.7C-115.3,99.7-115.3,99.7-115.3,99.7C-115.3,99.7-115.3,99.7-115.3,99.7
				C-115.2,99.7-115.2,99.7-115.3,99.7C-115.3,99.6-115.3,99.6-115.3,99.7 M-114.6,99.4c-0.1,0-0.2,0-0.2,0
				C-114.8,99.5-114.7,99.5-114.6,99.4C-114.6,99.5-114.6,99.4-114.6,99.4C-114.6,99.4-114.6,99.4-114.6,99.4 M-115.1,98.5
				c-0.3-0.1-0.6,0-0.6,0.3c0,0.2,0.1,0.3,0.1,0.4c0,0,0.1,0,0.1,0.1c-0.1-0.1-0.1-0.3-0.1-0.4c0-0.2,0.2-0.3,0.4-0.2
				c0.2,0,0.5,0.3,0.6,0.3c0,0,0,0.1,0.1,0.1c0,0,0,0.1,0,0.1c0,0,0,0,0,0.1c0,0,0.1,0,0.1,0c0-0.1,0-0.2,0-0.3
				C-114.5,98.8-114.8,98.6-115.1,98.5"/>
		</g>
		<g transform="matrix(7.3042,0,0,-6.7531,1551,647.88)">
			<path class="st0" d="M-205.9,91.7c0,0.2,0,0.5,0,0.6c0,0.1,0,0.3,0,0.5c0,0,0,0.1,0,0.1c0,0,0,0,0,0c0,0,0,0,0,0c0,0,0,0.1,0,0.1
				c0,0.1-0.1,0.3-0.1,0.3c0,0-0.1-0.1-0.1-0.1c0,0,0,0,0-0.1c0-0.1,0-0.4,0.1-0.6C-206,92.2-206,91.9-205.9,91.7
				c-0.1,0-0.1-0.2-0.1-0.2c0-0.1,0-0.3,0-0.3c0,0,0,0,0,0c0,0.1,0,0.2,0,0.3L-205.9,91.7z"/>
		</g>
		<g transform="matrix(7.3042,0,0,-6.7531,1417.5,555.68)">
			<path class="st0" d="M-188.4,78.6C-188.4,78.6-188.5,78.7-188.4,78.6c-0.1,0.2,0,0.2,0,0.2c0,0.1,0,0.1,0,0.1
				c0-0.1-0.1-0.2-0.1-0.3C-188.5,78.6-188.5,78.6-188.4,78.6C-188.4,78.5-188.4,78.6-188.4,78.6C-188.3,78.7-188.3,78.7-188.4,78.6
				C-188.4,78.7-188.4,78.6-188.4,78.6"/>
		</g>
		<g transform="matrix(7.3042,0,0,-6.7531,1348.2,594.54)">
			<path class="st0" d="M-179.3,84.1C-179.3,84.2-179.3,84.2-179.3,84.1c0,0-0.1-0.1-0.1-0.2c0-0.1,0-0.1,0-0.1c0,0,0.1,0,0.1,0.1
				c0,0,0,0.1,0,0.1c0,0,0-0.1,0-0.1c0,0-0.1,0-0.1,0.1C-179.4,84.1-179.3,84.1-179.3,84.1"/>
		</g>
		<g transform="matrix(7.3042,0,0,-6.7531,1146.4,737.86)">
			<path class="st0" d="M-152.9,104.4C-152.9,104.5-152.9,104.5-152.9,104.4c0,0-0.1-0.1-0.1-0.2c0-0.1,0-0.1,0-0.2c0,0,0.1,0,0.1,0
				c0,0,0,0.1,0,0.1c0,0,0-0.1,0-0.1c0,0-0.1,0,0,0.1C-152.9,104.4-152.9,104.4-152.9,104.4"/>
		</g>
		<g transform="matrix(7.3042,0,0,-6.7531,1500.2,535.46)">
			<path class="st0" d="M-199.2,75.8C-199.2,75.8-199.3,75.8-199.2,75.8c-0.1,0.2,0,0.2,0,0.3c0,0.1,0,0.1,0,0.1
				c0-0.1-0.1-0.2-0.1-0.3C-199.3,75.8-199.3,75.7-199.2,75.8C-199.2,75.7-199.2,75.7-199.2,75.8C-199.2,75.8-199.2,75.9-199.2,75.8
				C-199.2,75.8-199.2,75.8-199.2,75.8"/>
		</g>
		<g transform="matrix(7.3042,0,0,-6.7531,1498.7,666.11)">
			<path class="st0" d="M-199,94.3C-199,94.3-199,94.3-199,94.3c0.1,0.1,0.1,0.2,0.1,0.2C-198.9,94.4-198.9,94.4-199,94.3
				c0,0.1,0,0.1,0,0.2c0,0.1,0,0.1,0,0.2c0,0.1,0,0.1,0,0.1c0-0.1-0.1-0.2-0.1-0.3C-199.1,94.4-199.1,94.3-199,94.3"/>
		</g>
		<g transform="matrix(7.3042,0,0,-6.7531,1584.4,499.22)">
			<path class="st0" d="M-210.2,70.6C-210.2,70.7-210.2,70.8-210.2,70.6c0,0-0.1-0.1-0.1-0.2c0-0.1,0-0.2,0-0.2c0,0,0.1,0,0.1,0.1
				c0,0.1,0,0.1,0,0.1c0,0,0-0.1,0-0.1c0,0-0.1,0-0.1,0.1C-210.3,70.5-210.3,70.6-210.2,70.6"/>
		</g>
		<g transform="matrix(7.3042,0,0,-6.7531,899.52,661.58)">
			<path class="st0" d="M-120.6,93.6c0,0.1,0,0.1,0,0.1c-0.1-0.1-0.1-0.3-0.2-0.4c0-0.1,0-0.2,0-0.2c0.1,0,0.1,0,0.2,0.1
				c0,0.1,0,0.2,0,0.1c0,0,0-0.1-0.1-0.1c0,0-0.1,0.1-0.1,0.2C-120.6,93.5-120.6,93.6-120.6,93.6"/>
		</g>
		<g transform="matrix(7.3042,0,0,-6.7531,1639,775)">
			<path class="st0" d="M-217.4,109.7c0,0,0.2,0.1,0.3,0.2c0,0,0,0.1,0,0.1c0,0-0.1-0.1-0.1-0.1c0,0-0.1,0-0.1,0.1
				c0,0,0.1,0.1,0.1,0.1c0,0,0,0,0-0.1c0,0,0,0,0,0.1c0,0,0,0.1,0,0.1c-0.1,0-0.2-0.1-0.2-0.2c0,0,0-0.1,0.1-0.1
				C-217.3,109.8-217.3,109.8-217.4,109.7C-217.4,109.8-217.4,109.8-217.4,109.7"/>
		</g>
		<g transform="matrix(7.3042,0,0,-6.7531,1519,798.48)">
			<path class="st0" d="M-201.7,113c0,0,0.2,0.1,0.3,0.2c0,0,0,0.1,0,0.1c0,0-0.1-0.1-0.1-0.1c0,0-0.1,0-0.1,0.1
				c0,0,0.1,0.1,0.1,0.1c0,0,0,0,0-0.1c0,0,0,0,0,0.1c0,0,0,0.1,0,0.1c-0.1,0-0.2-0.1-0.2-0.2c0,0,0-0.1,0.1-0.1
				C-201.6,113.1-201.6,113.1-201.7,113C-201.7,113.1-201.7,113.1-201.7,113"/>
		</g>
		<g transform="matrix(7.3042,0,0,-6.7531,1248.7,458.72)">
			<path class="st0" d="M-166.3,64.9c0,0,0.1-0.2,0.2-0.3c0.1-0.1,0.3-0.3,0.4-0.4c0,0,0,0,0.1-0.1c0-0.3,0.1-0.6,0.1-0.7
				c0-0.1,0-0.3,0-0.3c0,0,0,0,0,0c0,0.1,0,0.3,0,0.5c0,0.1,0,0.3,0,0.4c0.1-0.1,0.1-0.2,0.2-0.2c0.1-0.1,0.2-0.2,0.2-0.3
				c0-0.1,0-0.1,0-0.2c0,0,0,0.1,0,0.2c0,0.1-0.1,0.2-0.2,0.4c-0.1,0.1-0.1,0.2-0.2,0.2c0,0,0,0,0,0.1c0,0.1-0.1,0.5-0.1,0.5
				c0,0,0,0.1,0,0.1c0,0,0,0,0,0c0,0,0-0.1,0.1,0c0,0,0,0.1,0,0.1c0,0.1-0.1,0.2-0.1,0.3c0,0-0.1-0.1-0.1-0.1c0,0,0,0,0-0.1
				c0,0,0-0.2,0-0.4c0-0.1,0-0.3,0-0.3l0,0c-0.1,0.1-0.2,0.1-0.2,0.2c-0.1,0.1-0.3,0.3-0.3,0.4c0,0,0,0,0,0c0,0,0.1,0,0.1,0
				c0,0,0,0,0,0c0,0-0.1,0.1-0.2,0.1c-0.1,0-0.1,0.1-0.1,0.1C-166.4,65.1-166.3,65-166.3,64.9C-166.3,65-166.3,64.9-166.3,64.9"/>
		</g>
		<g transform="matrix(7.3042,0,0,-6.7531,1275.3,423.15)">
			<path class="st0" d="M-169.8,59.9c0,0,0.1,0,0.2,0C-169.6,59.9-169.7,59.8-169.8,59.9c0-0.1,0-0.1,0-0.1c0,0,0.1,0,0.1,0
				c0,0,0.1,0.1,0.1,0.1c0,0,0,0,0,0.1c0,0-0.2,0-0.2,0C-169.8,60-169.8,59.9-169.8,59.9C-169.8,59.9-169.8,59.9-169.8,59.9"/>
		</g>
		<g transform="matrix(7.3042,0,0,-6.7531,1380.6,421.6)">
			<path class="st0" d="M-183.6,59.7c0,0,0.1,0,0.1,0C-183.4,59.6-183.5,59.6-183.6,59.7C-183.6,59.6-183.6,59.6-183.6,59.7
				c0-0.1,0.1-0.1,0.1-0.1c0,0,0.1,0.1,0.1,0.1c0,0,0,0,0,0C-183.4,59.7-183.5,59.8-183.6,59.7C-183.5,59.7-183.6,59.7-183.6,59.7
				C-183.6,59.6-183.6,59.6-183.6,59.7"/>
		</g>
		<g transform="matrix(7.3042,0,0,-6.7531,1466.2,420.5)">
			<path class="st0" d="M-194.8,59.5c0,0,0.1,0,0.1,0C-194.6,59.5-194.7,59.4-194.8,59.5C-194.8,59.4-194.8,59.4-194.8,59.5
				c0-0.1,0.1-0.1,0.1-0.1c0,0,0.1,0.1,0.1,0.1c0,0,0,0,0,0C-194.6,59.6-194.7,59.6-194.8,59.5C-194.8,59.6-194.8,59.5-194.8,59.5
				C-194.8,59.5-194.8,59.5-194.8,59.5"/>
		</g>
		<g transform="matrix(7.3042,0,0,-6.7531,1412.8,462.19)">
			<path class="st0" d="M-187.8,65.4c0-0.1,0-0.1,0-0.1c0,0,0,0-0.1,0C-187.8,65.3-187.8,65.4-187.8,65.4
				C-187.9,65.4-187.9,65.4-187.8,65.4c-0.1,0-0.1-0.1-0.1-0.1c0,0,0,0,0,0c-0.1,0,0,0.1,0,0.1c0,0,0,0,0,0c0,0,0,0,0,0
				c0,0,0,0,0-0.1c0,0,0,0,0,0c0,0,0.1,0,0.1,0.1c0,0,0.1-0.1,0.1,0C-187.7,65.3-187.7,65.3-187.8,65.4
				C-187.8,65.4-187.8,65.4-187.8,65.4"/>
		</g>
		<g transform="matrix(7.3042,0,0,-6.7531,1163.1,441.02)">
			<path class="st0" d="M-155.1,62.4C-155.1,62.4-155.1,62.4-155.1,62.4C-155,62.4-155,62.4-155.1,62.4c0.1,0,0.1,0,0.2,0
				c0,0,0,0.1,0,0.1c0,0,0,0,0,0c0,0,0-0.1,0-0.1c0,0,0,0,0,0c0,0,0,0.1,0,0.1c0,0,0,0,0,0S-155,62.5-155.1,62.4
				C-155,62.4-155,62.4-155.1,62.4c0,0,0,0.1,0,0.1C-155.1,62.5-155.1,62.5-155.1,62.4C-155.1,62.5-155.1,62.5-155.1,62.4
				C-155.1,62.4-155.1,62.4-155.1,62.4"/>
		</g>
		<g transform="matrix(7.3042,0,0,-6.7531,1344.4,750.3)">
			<path class="st0" d="M-178.8,106.2C-178.8,106.2-178.8,106.2-178.8,106.2c0,0.1,0,0.1,0,0.2c0,0-0.1,0-0.1-0.1l0,0c0,0,0,0,0,0
				c0,0,0,0-0.1-0.1c0,0-0.2-0.1-0.2-0.2c-0.1,0-0.1-0.1-0.2-0.1c0,0,0,0,0,0c0,0,0.1,0,0.2,0.1c0,0,0.1,0.1,0.2,0.1
				c0.1,0,0.1,0.1,0.1,0.1c0,0,0,0,0,0S-178.9,106.2-178.8,106.2C-178.8,106.2-178.8,106.2-178.8,106.2 M-178.9,106.3
				C-178.9,106.3-178.8,106.3-178.9,106.3C-178.9,106.3-178.9,106.3-178.9,106.3C-178.9,106.3-178.9,106.3-178.9,106.3"/>
		</g>
		<g transform="matrix(7.3042,0,0,-6.7531,1264.9,757.77)">
			<path class="st0" d="M-168.4,107.3c-0.1,0-0.2,0-0.3,0.1c0,0.1,0.2,0.1,0.4,0.2c0.2,0.1,0.4,0.1,0.4,0.2c0,0,0,0,0,0
				c0,0,0.1,0.1,0.1,0.2c-0.1,0-0.4,0-0.5,0c-0.1,0-0.4,0-0.5,0c0.1,0,0.2,0.1,0.4,0.2c0,0,0,0,0.1,0c0,0,0-0.1,0-0.1
				c0,0,0,0.1,0,0.1c0.1,0,0.2,0.1,0.2,0.1c0,0,0,0.1,0,0.2c0,0-0.1,0.1-0.1,0.1c-0.1,0-0.1,0.1-0.2,0.1c-0.1,0-0.1-0.2-0.1-0.2
				c0,0,0,0,0-0.1c-0.1,0-0.1-0.1-0.2-0.1c-0.1-0.1-0.3-0.2-0.3-0.3l0,0c0,0,0-0.1,0-0.2c0,0,0.2,0,0.4,0c0.2,0,0.3,0,0.3,0
				c-0.1,0-0.3-0.1-0.3-0.1c-0.1,0-0.1-0.1-0.1-0.2c-0.1,0-0.2,0.1-0.2,0.2c-0.1,0.1-0.1,0.3-0.1,0.5c-0.1,0.3-0.2,0.5-0.2,0.6
				c0-0.1,0-0.2,0-0.2s0.1-0.2,0.1-0.4c0-0.1,0.1-0.3,0.1-0.3c0-0.1-0.3-0.3-0.5-0.4c-0.2-0.1-0.3-0.1-0.4,0c0,0,0,0,0,0.1
				c0,0,0,0,0.1,0c0.2,0.1,0.4,0.2,0.5,0.3c0.1,0.1,0.1,0.3,0,0.3c0,0.1-0.1,0.2-0.1,0.2c0,0,0,0,0.1,0c0,0,0,0,0,0.1
				c0,0-0.1,0.1-0.1,0.1c0,0,0,0,0,0c0,0,0-0.1,0-0.1l0,0c0,0,0,0,0,0c0,0,0-0.1,0.1-0.2c0-0.1,0.1-0.2,0.1-0.2
				c-0.1-0.1-0.3-0.2-0.6-0.4c0,0.1,0,0.1,0.1,0.2c0,0,0,0,0,0c0,0.1,0,0.1,0,0.1c0,0,0-0.1,0-0.1c0,0-0.1,0-0.1,0.1
				c0,0.1,0,0.1,0.1,0.2c0,0.1,0,0.1,0,0.1c0-0.1-0.1-0.2-0.1-0.3c0-0.1,0-0.1,0-0.2c0,0,0,0,0,0c0,0-0.1-0.1-0.1-0.2
				c-0.1-0.1-0.2-0.1-0.3-0.1c-0.3-0.1-0.5-0.2-0.7-0.2l0,0c0,0,0,0.1,0,0.1c0,0,0-0.1,0-0.1c0,0-0.1,0-0.1,0.1c0,0.1,0,0.1,0.1,0.2
				c0,0.1,0,0.1,0,0.1c0-0.1-0.1-0.2-0.1-0.3c0-0.1,0-0.1,0-0.2c0,0,0.1,0,0.1,0.1l0,0c0,0,0,0,0,0c0.1,0,0.2,0,0.5,0.1
				c0.2,0,0.3,0.1,0.4,0.1c0,0,0,0,0,0c0-0.2,0.1-0.2,0.3-0.2c0.1,0,0.3,0.2,0.4,0.3c0.1,0.1,0.2,0.2,0.2,0.2c0,0.1,0,0.2,0,0.2
				c0-0.1,0-0.3,0.1-0.4c0.1-0.1,0.3-0.3,0.6-0.3C-168.4,107.1-168.4,107.3-168.4,107.3 M-168.4,108.3c0,0.1,0.1,0,0.2-0.1
				c0,0-0.1,0-0.1,0C-168.4,108.3-168.4,108.3-168.4,108.3"/>
		</g>
		<g transform="matrix(7.3042,0,0,-6.7531,952.63,471.1)">
			<path class="st0" d="M-127.5,66.7c0,0,0.1,0,0.2,0.1c0.1,0,0.1,0.1,0.2,0.1c0,0,0,0,0,0c0,0,0,0,0,0c0,0,0,0,0,0c0,0,0,0.1,0,0.1
				c0,0-0.1,0.1-0.1,0.1c0,0,0,0,0,0h0l0,0c0,0-0.1-0.1-0.1-0.1c0,0,0,0,0,0l0,0c0,0-0.1-0.1-0.1-0.1
				C-127.4,66.8-127.5,66.7-127.5,66.7C-127.5,66.7-127.5,66.7-127.5,66.7 M-127.1,67L-127.1,67C-127.1,67-127.1,66.9-127.1,67
				C-127.1,66.9-127.1,66.9-127.1,67C-127.1,67-127.1,67-127.1,67 M-127.2,67C-127.2,67-127.2,67-127.2,67
				C-127.2,67-127.2,67-127.2,67L-127.2,67L-127.2,67C-127.2,67-127.2,67-127.2,67"/>
		</g>
		<g transform="matrix(7.3042,0,0,-6.7531,1215.5,576.87)">
			<path class="st0" d="M-161.9,81.6c0,0,0.1,0.1,0.2,0.1c0,0,0.1,0.1,0.1,0.1c0,0,0,0,0.1,0c0,0,0,0,0,0c0,0,0,0.1,0,0.1
				c0,0,0,0-0.1,0.1c0,0,0,0.1,0,0.2c0,0-0.1,0-0.1-0.1c0,0,0-0.1,0-0.1c0,0,0,0,0,0c0,0-0.1-0.1-0.2-0.2
				C-161.9,81.7-162,81.6-161.9,81.6L-161.9,81.6C-162,81.7-162,81.7-161.9,81.6c-0.1,0-0.1-0.1,0-0.2c0,0-0.1,0-0.1,0
				c0,0.1,0,0.2-0.1,0.2c0,0,0-0.1,0-0.1s0-0.1,0-0.1c0,0,0-0.1-0.1-0.1c-0.1,0,0,0.1-0.1,0.2c0,0,0,0,0-0.1c0,0,0,0,0-0.1
				c0,0,0-0.1,0-0.1c0,0,0-0.1,0.1-0.1c0.1,0,0.1,0,0.1,0.1c0,0,0.1-0.1,0.1,0C-161.9,81.5-161.9,81.5-161.9,81.6L-161.9,81.6
				C-162,81.6-162,81.6-161.9,81.6 M-161.7,82C-161.7,82.1-161.6,82.1-161.7,82C-161.6,82.1-161.6,82-161.7,82
				C-161.7,82-161.7,82-161.7,82"/>
		</g>
		<g transform="matrix(7.3042,0,0,-6.7531,992.43,536.89)">
			<path class="st0" d="M-132.7,76c-0.1,0-0.1,0.1-0.1,0.2c0,0.1,0,0.2,0,0.3c0,0,0,0,0-0.1c0-0.1,0-0.2,0-0.4
				c0-0.1,0.1-0.2,0.2-0.2c0.1,0,0.1,0.2,0.2,0.3c0,0.1,0.1,0.4,0.2,0.4c0,0,0-0.1-0.1-0.3c0-0.1,0-0.3,0.2-0.4
				c0.2,0,0.3,0.1,0.3,0.2c0,0.1,0.1,0.2,0.1,0.2c0-0.1,0.1-0.3,0.2-0.3c0.1,0,0.2,0,0.3,0.1c0,0.1,0.1,0.2,0.1,0.3
				c0,0.1-0.1,0.3-0.1,0.3c0,0.1,0,0.1,0,0.1c0,0,0,0,0.1,0c0,0,0,0,0,0.1c0,0-0.1,0.2-0.1,0.2c0,0,0-0.1,0-0.2c0,0,0,0,0-0.1
				c0,0,0-0.2,0.1-0.2c0-0.1,0.1-0.2,0.1-0.3c0,0-0.2-0.1-0.3,0c-0.1,0-0.1,0.1-0.2,0.2c0,0.1,0,0.2,0,0.4c0,0.1,0,0.1-0.1,0.2
				c0,0,0-0.2,0-0.2c0,0,0.1-0.2,0.1-0.3c0-0.1,0-0.2-0.1-0.3c-0.1-0.1-0.3,0-0.3,0.1c0,0.1,0.1,0.4,0.1,0.5c0,0.1,0,0.1,0,0.1
				c0,0-0.1-0.1-0.1-0.2c-0.1-0.1-0.1-0.2-0.1-0.3C-132.6,76.1-132.7,76-132.7,76"/>
		</g>
		<g transform="matrix(7.3042,0,0,-6.7531,642.92,468.66)">
			<path class="st0" d="M-87,66.3c0.1,0,0.2,0.1,0.2,0.1c0,0,0,0,0,0C-86.9,66.4-87,66.4-87,66.3c0,0.1,0,0.1,0,0.1
				c0,0,0.1,0,0.1,0.1l0,0c0,0,0.1,0,0.1,0c0,0,0,0.1,0,0.1c0,0-0.1,0.1-0.1,0.1c0,0,0,0-0.1,0c0,0,0,0,0,0c0,0,0,0,0-0.1
				c0,0,0,0,0,0c0,0,0,0,0,0l0,0c0,0-0.1-0.1-0.1-0.1C-87,66.4-87,66.4-87,66.3C-87.1,66.3-87,66.3-87,66.3 M-86.8,66.6L-86.8,66.6
				L-86.8,66.6C-86.8,66.6-86.7,66.6-86.8,66.6C-86.7,66.5-86.8,66.6-86.8,66.6C-86.8,66.6-86.8,66.6-86.8,66.6 M-86.9,66.6
				C-86.9,66.6-86.9,66.6-86.9,66.6C-86.8,66.7-86.8,66.6-86.9,66.6C-86.8,66.6-86.8,66.6-86.9,66.6C-86.9,66.6-86.9,66.6-86.9,66.6
				"/>
		</g>
		<g transform="matrix(7.3042,0,0,-6.7531,687.36,635.95)">
			<path class="st0" d="M-92.8,90c0,0,0-0.1,0-0.1c0,0,0.1,0,0.1,0l0,0c0,0,0.1-0.2,0.1-0.2c0,0,0,0,0,0.1c0,0,0,0.1,0,0.2
				c0,0.1,0,0.1,0,0.1c0,0,0,0,0.1-0.1c0,0,0,0.1,0,0.1c0,0,0,0.1-0.1,0.1c0,0-0.1-0.1-0.1-0.2c0-0.1,0-0.1,0-0.1c0,0,0,0.1-0.1,0.2
				C-92.7,90-92.8,90-92.8,90"/>
		</g>
		<g transform="matrix(7.3042,0,0,-6.7531,630.59,621.43)">
			<path class="st0" d="M-85.3,88c0,0,0.1,0,0.1,0c0,0,0.1,0.1,0.1,0.1c0,0,0,0,0,0.1c0,0-0.2,0-0.2,0c0,0-0.1-0.1-0.1-0.1
				c0,0,0,0,0,0c0,0,0.1,0,0.2,0C-85.2,88.1-85.3,88-85.3,88C-85.3,88-85.4,88-85.3,88"/>
		</g>
		<g transform="matrix(7.3042,0,0,-6.7531,1778.1,690.36)">
			<path class="st0" d="M-235.6,97.7c0,0.1,0,0.2-0.2,0.5c-0.1,0.1-0.1,0.2-0.2,0.3c0,0,0,0.1,0,0.1c0,0.1,0,0.4-0.1,0.6
				c0,0,0,0.1,0,0.1c0,0,0,0,0,0c0,0,0,0,0,0c0,0,0,0,0,0.1c0,0.1-0.1,0.3-0.1,0.3c0,0,0-0.1-0.1-0.1c0,0,0,0,0-0.1
				c0-0.1,0-0.5,0.1-0.7l0,0c-0.1,0.1-0.2,0.3-0.3,0.3c0,0,0,0,0,0c0,0.1,0,0.1,0,0.2c0,0,0,0.1,0,0.1c0,0,0,0,0,0c0,0,0,0,0,0
				c0,0,0,0,0,0.1c0,0.1-0.1,0.3-0.1,0.3c0,0-0.1-0.1-0.1-0.1c0,0,0,0,0-0.1c0,0,0-0.1,0-0.2c-0.1,0.1-0.2,0.2-0.2,0.2c0,0,0,0,0,0
				c0,0,0.1,0,0.1,0c0,0,0,0,0,0c0,0-0.1,0.1-0.2,0.1c-0.1,0-0.1,0.1-0.1,0.1c0,0,0-0.1,0-0.1c0,0,0,0,0.1,0c0,0,0.1-0.2,0.2-0.3
				c0,0,0.1-0.1,0.1-0.1c0-0.1,0-0.2,0-0.3c0-0.2,0.1-0.8,0.1-0.9c0,0-0.1-0.1-0.2-0.1c-0.1,0-0.2,0-0.2,0.1c0,0,0,0,0,0.1
				c0,0.1-0.1,0.1-0.1,0.1l0,0l0,0c0,0-0.1-0.1-0.1-0.1c-0.1-0.1-0.1-0.2-0.2-0.3c-0.1-0.1-0.1-0.2-0.2-0.1c-0.1,0-0.1,0.1-0.1,0.1
				c0.1,0.1,0.1,0.1,0.2,0.3c0.1,0.2,0.1,0.3,0.1,0.5c0,0.2-0.1,0.6-0.1,0.8c0,0.2,0,0.3,0,0.3c0,0,0.1,0,0.1-0.1c0,0,0,0.1,0,0.1
				c0,0-0.1,0.2-0.1,0.2c0,0,0,0,0,0.1c0,0-0.1-0.1-0.1-0.1c0,0,0,0,0-0.1c0,0,0-0.4,0.1-0.6c0-0.2,0.1-0.5,0.1-0.8
				c0-0.1,0-0.1,0-0.2c0-0.1-0.1-0.1-0.2-0.2c0,0.2,0,0.3,0,0.3c0,0,0-0.1,0-0.2c0,0,0-0.1,0-0.2c-0.2-0.1-0.4-0.2-0.5-0.3
				c-0.1,0,0,0,0,0c0.1,0,0.3,0.1,0.5,0.2l0,0c0,0,0-0.1,0-0.1c0.1-0.1,0.1-0.2,0.2-0.2c0.1,0,0.1,0.1,0.2,0.2
				c0,0.1,0.1,0.3,0.2,0.3c0,0,0.1,0,0.1,0.1c0,0,0.1,0,0.1,0c0,0,0,0,0,0c0,0,0-0.1,0.1-0.1c0.1-0.1,0.2-0.1,0.3,0
				c0.1,0,0.1,0.1,0.2,0.2c0,0.1,0,0.3,0,0.4c0,0.2,0,0.3,0,0.5c0,0.1,0,0.1,0,0.2c0.1-0.1,0.2-0.2,0.2-0.3c0,0,0,0,0.1-0.1
				c0-0.3,0-0.6,0-0.7c0-0.1,0-0.3,0-0.3c0,0,0,0,0,0c0,0.1,0,0.3,0,0.5c0,0.1,0,0.3,0,0.4c0.1-0.1,0.1-0.2,0.2-0.2
				C-235.8,97.9-235.7,97.8-235.6,97.7c0-0.1,0-0.1,0-0.1C-235.6,97.6-235.6,97.6-235.6,97.7"/>
		</g>
	</g>
	<path id="sword" class="st0" d="M47.6,45.4c-0.1-0.1-0.2-0.3-0.4-0.3c-0.2,0-0.3,0.1-0.4,0.3h-1.8c0-0.2,0-0.4,0.1-0.6l3.7,0
		l0.1,0.2c0.1,0.2,0.2,0.3,0.3,0.4L47.6,45.4z M50,43.7h-4.4c0.3-0.2,0.5-0.6,0.5-1c0-0.2-0.3-0.4-0.5-0.4h-0.1
		c-0.3,0-0.6,0.3-0.5,0.5l0,0.1l0,0.2c0,0.2,0,0.4-0.1,0.6H12.4c0.5,0.7,1.4,1.1,2.3,1.1l29.6,0c-0.3,0.2-0.5,0.6-0.5,1
		c0,0.3,0.3,0.5,0.7,0.4c0.3,0,0.6-0.3,0.5-0.5l0-0.1h1.7c0,0.2,0.2,0.3,0.4,0.3s0.4-0.1,0.4-0.3h1.8v0c0.4,0.3,0.8,0.4,1.3,0.4
		c0.5,0,0.8-0.3,0.8-0.7V45C51.6,44.3,50.9,43.7,50,43.7"/>
</g>
</svg>
