<svg width="46" height="46" viewBox="0 0 46 46" fill="none" xmlns="http://www.w3.org/2000/svg">
<rect y="0.335449" width="45.3289" height="45.3289" rx="22.6645" fill="#E3E6F0"/>
<path d="M32.8887 27.3946C34.0026 28.5115 34.0026 30.3196 32.8887 31.4365L32.0488 32.405C24.4875 39.6437 6.08854 21.2491 13.2154 13.6638L14.2769 12.7408C15.3947 11.6585 17.1741 11.6749 18.2716 12.7776C18.3001 12.8061 20.0107 15.0283 20.0107 15.0283C21.0653 16.1362 21.0623 17.8771 20.0043 18.9815L18.9354 20.3256C20.1302 23.229 22.4332 25.5364 25.3339 26.7373L26.6862 25.6619C27.7906 24.6047 29.5311 24.6021 30.6385 25.6563C30.6385 25.6563 32.8602 27.3661 32.8887 27.3946ZM31.6182 28.737C31.6182 28.737 29.4091 27.0376 29.3805 27.0086C28.9845 26.6161 28.3462 26.6161 27.9503 27.0086C27.9252 27.0346 26.0631 28.518 26.0631 28.518C25.8078 28.7214 25.4642 28.7747 25.1591 28.6583C21.3942 27.2566 18.423 24.2896 17.0157 20.5269C16.8902 20.2174 16.9413 19.8647 17.1494 19.6038C17.1494 19.6038 18.6329 17.7408 18.658 17.7166C19.0505 17.3206 19.0505 16.6823 18.658 16.2863C18.6294 16.2586 16.9296 14.0477 16.9296 14.0477C16.5289 13.6885 15.9174 13.7041 15.5358 14.0836L14.4742 15.0067C9.26574 21.2699 25.2102 36.3301 30.6982 31.1435L31.539 30.1742C31.9488 29.7947 31.9834 29.1585 31.6173 28.7366L31.6182 28.737Z" fill="#1F2B5A"/>
</svg>
