<svg width="25" height="24" viewBox="0 0 25 24" fill="none" xmlns="http://www.w3.org/2000/svg">
<path d="M14.8498 2H10.1498C9.10977 2 8.25977 2.84 8.25977 3.88V4.82C8.25977 5.86 9.09977 6.7 10.1398 6.7H14.8498C15.8898 6.7 16.7298 5.86 16.7298 4.82V3.88C16.7398 2.84 15.8898 2 14.8498 2Z" fill="#1F2B5A"/>
<path d="M17.7391 4.82047C17.7391 6.41047 16.4391 7.71047 14.8491 7.71047H10.1491C8.55906 7.71047 7.25906 6.41047 7.25906 4.82047C7.25906 4.26047 6.65906 3.91047 6.15906 4.17047C4.74906 4.92047 3.78906 6.41047 3.78906 8.12047V17.5305C3.78906 19.9905 5.79906 22.0005 8.25906 22.0005H16.7391C19.1991 22.0005 21.2091 19.9905 21.2091 17.5305V8.12047C21.2091 6.41047 20.2491 4.92047 18.8391 4.17047C18.3391 3.91047 17.7391 4.26047 17.7391 4.82047ZM12.8791 16.9505H8.49906C8.08906 16.9505 7.74906 16.6105 7.74906 16.2005C7.74906 15.7905 8.08906 15.4505 8.49906 15.4505H12.8791C13.2891 15.4505 13.6291 15.7905 13.6291 16.2005C13.6291 16.6105 13.2891 16.9505 12.8791 16.9505ZM15.4991 12.9505H8.49906C8.08906 12.9505 7.74906 12.6105 7.74906 12.2005C7.74906 11.7905 8.08906 11.4505 8.49906 11.4505H15.4991C15.9091 11.4505 16.2491 11.7905 16.2491 12.2005C16.2491 12.6105 15.9091 12.9505 15.4991 12.9505Z" fill="#1F2B5A"/>
</svg>
