<svg width="25" height="24" viewBox="0 0 25 24" fill="none" xmlns="http://www.w3.org/2000/svg">
<path d="M14.8498 2H10.1498C9.10977 2 8.25977 2.84 8.25977 3.88V4.82C8.25977 5.86 9.09977 6.7 10.1398 6.7H14.8498C15.8898 6.7 16.7298 5.86 16.7298 4.82V3.88C16.7398 2.84 15.8898 2 14.8498 2Z" fill="#1F2B5A"/>
<path d="M17.7391 4.82047C17.7391 6.41047 16.4391 7.71047 14.8491 7.71047H10.1491C8.55906 7.71047 7.25906 6.41047 7.25906 4.82047C7.25906 4.26047 6.65906 3.91047 6.15906 4.17047C4.74906 4.92047 3.78906 6.41047 3.78906 8.12047V17.5305C3.78906 19.9905 5.79906 22.0005 8.25906 22.0005H16.7391C19.1991 22.0005 21.2091 19.9905 21.2091 17.5305V8.12047C21.2091 6.41047 20.2491 4.92047 18.8391 4.17047C18.3391 3.91047 17.7391 4.26047 17.7391 4.82047ZM15.8391 12.7305L11.8391 16.7305C11.6891 16.8805 11.4991 16.9505 11.3091 16.9505C11.1191 16.9505 10.9291 16.8805 10.7791 16.7305L9.27906 15.2305C8.98906 14.9405 8.98906 14.4605 9.27906 14.1705C9.56906 13.8805 10.0491 13.8805 10.3391 14.1705L11.3091 15.1405L14.7791 11.6705C15.0691 11.3805 15.5491 11.3805 15.8391 11.6705C16.1291 11.9605 16.1291 12.4405 15.8391 12.7305Z" fill="#1F2B5A"/>
</svg>
