<svg width="46" height="46" viewBox="0 0 46 46" fill="none" xmlns="http://www.w3.org/2000/svg">
<rect y="0.335571" width="45.3289" height="45.3289" rx="22.6645" fill="#E3E6F0"/>
<path d="M16.2238 12.8785C13.6843 12.8816 11.6261 14.9398 11.623 17.4793V28.5207C11.6261 31.0603 13.6843 33.1185 16.2238 33.1215H29.1056C31.6452 33.1185 33.7034 31.0603 33.7064 28.5207V17.4793C33.7034 14.9398 31.6452 12.8816 29.1056 12.8785H16.2238ZM16.2238 14.7189H29.1056C30.2326 14.7211 31.2453 15.4086 31.6637 16.4554L24.6175 23.5025C23.5379 24.5777 21.792 24.5777 20.7124 23.5025L13.6657 16.4549C14.0841 15.4082 15.0964 14.7211 16.2238 14.7185V14.7189ZM16.2238 31.2811C14.6991 31.2811 13.4634 30.0454 13.4634 28.5207V18.8595L19.4112 24.8033C21.2093 26.5971 24.1202 26.5971 25.9183 24.8033L31.866 18.8595V28.5207C31.866 30.0454 30.6303 31.2811 29.1056 31.2811H16.2238Z" fill="#1F2B5A"/>
</svg>
