<svg width="42" height="42" viewBox="0 0 42 42" fill="none" xmlns="http://www.w3.org/2000/svg">
<g clip-path="url(#clip0_278_5685)">
<path d="M21.1959 41.3176C32.4855 41.3176 41.6375 32.1656 41.6375 20.876C41.6375 9.58636 32.4855 0.434326 21.1959 0.434326C9.90625 0.434326 0.754211 9.58636 0.754211 20.876C0.754211 32.1656 9.90625 41.3176 21.1959 41.3176Z" fill="#66F9CA"/>
<path d="M34.6663 17.0699C34.6663 13.7139 31.9448 11 28.5964 11H13.0699C9.71388 11 7 13.7215 7 17.0699V24.2942C7 27.6502 9.72153 30.3641 13.0699 30.3641H28.5964C31.9524 30.3641 34.6663 27.6426 34.6663 24.2942V17.0699ZM25.5308 21.2287L18.5665 24.6764C18.2913 24.8217 17.3663 24.6229 17.3663 24.3171V17.2458C17.3663 16.9323 18.2989 16.7336 18.5741 16.8864L25.2403 20.5101C25.5232 20.6706 25.8137 21.0758 25.5308 21.2287Z" fill="#1F2B5A"/>
</g>
<defs>
<clipPath id="clip0_278_5685">
<rect width="40.8767" height="40.8767" fill="white" transform="translate(0.630188 0.561523)"/>
</clipPath>
</defs>
</svg>
