<svg width="42" height="42" viewBox="0 0 42 42" fill="none" xmlns="http://www.w3.org/2000/svg">
<g clip-path="url(#clip0_278_5691)">
<path d="M20.8159 41.4418C32.1038 41.4418 41.2544 32.2911 41.2544 21.0032C41.2544 9.71534 32.1038 0.564697 20.8159 0.564697C9.52802 0.564697 0.37738 9.71534 0.37738 21.0032C0.37738 32.2911 9.52802 41.4418 20.8159 41.4418Z" fill="#66F9CA"/>
<path d="M32.0108 20.4645C31.6394 14.1286 25.8825 9.2456 19.2517 10.338C14.6855 11.0917 11.026 14.7949 10.3159 19.3612C9.9008 22.0047 10.447 24.5063 11.6377 26.571L10.6655 30.1868C10.447 31.0061 11.2007 31.7489 12.0091 31.5195L15.5703 30.5364C17.1871 31.4867 19.0769 32.0329 21.0978 32.0329C27.2589 32.0329 32.3713 26.6037 32.0108 20.4645ZM26.4397 25.1727C26.3413 25.3693 26.2211 25.555 26.0682 25.7298C25.7951 26.0248 25.5002 26.2432 25.1724 26.3743C24.8447 26.5163 24.4843 26.5819 24.1019 26.5819C23.5448 26.5819 22.944 26.4508 22.3213 26.1777C21.6877 25.9046 21.0651 25.5441 20.4424 25.0962C19.8088 24.6374 19.2189 24.124 18.6509 23.5669C18.0828 22.9988 17.5803 22.398 17.1215 21.7753C16.6736 21.1527 16.3132 20.53 16.051 19.9073C15.7888 19.2847 15.6577 18.6839 15.6577 18.1158C15.6577 17.7444 15.7233 17.3839 15.8544 17.0562C15.9854 16.7176 16.193 16.4117 16.488 16.1386C16.8375 15.789 17.2198 15.6252 17.624 15.6252C17.777 15.6252 17.9299 15.6579 18.0719 15.7235C18.2139 15.789 18.345 15.8873 18.4433 16.0294L19.7105 17.8209C19.8088 17.9629 19.8853 18.0831 19.929 18.2032C19.9836 18.3234 20.0054 18.4326 20.0054 18.5419C20.0054 18.6729 19.9618 18.804 19.8853 18.9351C19.8088 19.0662 19.7105 19.1973 19.5794 19.3284L19.1643 19.7653C19.0987 19.8309 19.0769 19.8964 19.0769 19.9838C19.0769 20.0275 19.0878 20.0712 19.0987 20.1149C19.1206 20.1586 19.1315 20.1914 19.1425 20.2242C19.2408 20.4099 19.4155 20.6392 19.6559 20.9233C19.9071 21.2073 20.1693 21.5022 20.4534 21.7863C20.7483 22.0812 21.0323 22.3434 21.3273 22.5946C21.6113 22.835 21.8516 22.9988 22.0373 23.0972C22.07 23.1081 22.1028 23.1299 22.1356 23.1408C22.1793 23.1627 22.223 23.1627 22.2776 23.1627C22.376 23.1627 22.4415 23.1299 22.5071 23.0644L22.9221 22.6493C23.0641 22.5073 23.1953 22.4089 23.3154 22.3434C23.4465 22.2669 23.5667 22.2232 23.7087 22.2232C23.8179 22.2232 23.9271 22.2451 24.0473 22.2997C24.1675 22.3543 24.2985 22.4199 24.4296 22.5182L26.243 23.8072C26.385 23.9055 26.4833 24.0257 26.5489 24.1568C26.6035 24.2988 26.6363 24.4299 26.6363 24.5828C26.5707 24.7685 26.527 24.9761 26.4397 25.1727Z" fill="#1F2B5A"/>
</g>
<defs>
<clipPath id="clip0_278_5691">
<rect width="40.8705" height="40.8705" fill="white" transform="translate(0.37738 0.564697)"/>
</clipPath>
</defs>
</svg>
