<svg width="42" height="42" viewBox="0 0 42 42" fill="none" xmlns="http://www.w3.org/2000/svg">
<g clip-path="url(#clip0_278_5679)">
<path d="M21.3184 41.4448C32.608 41.4448 41.76 32.2928 41.76 21.0032C41.76 9.71356 32.608 0.561523 21.3184 0.561523C10.0287 0.561523 0.876709 9.71356 0.876709 21.0032C0.876709 32.2928 10.0287 41.4448 21.3184 41.4448Z" fill="#66F9CA"/>
<path d="M23.499 19.2104L32.0317 9.29175H30.0086L22.5991 17.9033L16.6808 9.29175H9.85596L18.809 22.3174L9.85596 32.7221H11.8791L19.7024 23.6245L25.9557 32.7221H32.7806L23.499 19.2104ZM20.7271 22.4291L19.8206 21.135L12.6017 10.8157H15.7086L21.535 19.1447L22.4415 20.4388L30.0086 31.2639H26.9016L20.7271 22.4291Z" fill="#1F2B5A"/>
</g>
<defs>
<clipPath id="clip0_278_5679">
<rect width="40.8767" height="40.8767" fill="white" transform="translate(0.876709 0.561523)"/>
</clipPath>
</defs>
</svg>
