<svg width="41" height="42" viewBox="0 0 41 42" fill="none" xmlns="http://www.w3.org/2000/svg">
<g clip-path="url(#clip0_278_5676)">
<path d="M20.4416 41.4448C31.7313 41.4448 40.8833 32.2928 40.8833 21.0032C40.8833 9.71356 31.7313 0.561523 20.4416 0.561523C9.15204 0.561523 0 9.71356 0 21.0032C0 32.2928 9.15204 41.4448 20.4416 41.4448Z" fill="#66F9CA"/>
<path d="M26.636 13.4765C25.8806 13.4765 25.2631 14.0939 25.2631 14.8493C25.2631 15.6047 25.8806 16.2222 26.636 16.2222C27.3913 16.2222 28.0088 15.6047 28.0088 14.8493C28.0088 14.0939 27.3913 13.4765 26.636 13.4765Z" fill="#1F2B5A"/>
<path d="M20.5336 15.2368C17.3544 15.2368 14.7729 17.8249 14.7729 20.9975C14.7729 24.1702 17.3609 26.7582 20.5336 26.7582C23.7062 26.7582 26.2943 24.1702 26.2943 20.9975C26.2943 17.8249 23.7062 15.2368 20.5336 15.2368ZM20.5336 24.6957C18.4973 24.6957 16.842 23.0404 16.842 21.0041C16.842 18.9678 18.4973 17.3125 20.5336 17.3125C22.5699 17.3125 24.2252 18.9678 24.2252 21.0041C24.2252 23.0404 22.5699 24.6957 20.5336 24.6957Z" fill="#1F2B5A"/>
<path d="M25.1119 32.7027H15.7713C11.8958 32.7027 8.7428 29.5498 8.7428 25.6743V16.3336C8.7428 12.4581 11.8958 9.30518 15.7713 9.30518H25.1119C28.9874 9.30518 32.1403 12.4581 32.1403 16.3336V25.6743C32.1403 29.5498 28.9874 32.7027 25.1119 32.7027ZM15.7647 11.5057C13.1044 11.5057 10.9367 13.6733 10.9367 16.3336V25.6743C10.9367 28.3346 13.1044 30.5022 15.7647 30.5022H25.1053C27.7656 30.5022 29.9333 28.3346 29.9333 25.6743V16.3336C29.9333 13.6733 27.7656 11.5057 25.1053 11.5057H15.7647Z" fill="#1F2B5A"/>
</g>
<defs>
<clipPath id="clip0_278_5676">
<rect width="40.8767" height="40.8767" fill="white" transform="translate(0 0.561523)"/>
</clipPath>
</defs>
</svg>
