<svg width="42" height="42" viewBox="0 0 42 42" fill="none" xmlns="http://www.w3.org/2000/svg">
<g clip-path="url(#clip0_278_5682)">
<path d="M21.1951 41.4448C32.4847 41.4448 41.6367 32.2928 41.6367 21.0032C41.6367 9.71356 32.4847 0.561523 21.1951 0.561523C9.90545 0.561523 0.753418 9.71356 0.753418 21.0032C0.753418 32.2928 9.90545 41.4448 21.1951 41.4448Z" fill="#66F9CA"/>
<path d="M31.3307 18.7372C31.1402 18.7569 30.9431 18.7635 30.746 18.7635C28.6112 18.7635 26.6209 17.6862 25.4517 15.8995V25.6408C25.4517 29.6214 22.2265 32.8401 18.2525 32.8401C14.2784 32.8401 11.0532 29.6149 11.0532 25.6408C11.0532 21.6668 14.2784 18.4416 18.2525 18.4416C18.4035 18.4416 18.5481 18.4547 18.6991 18.4613V22.0084C18.5546 21.9887 18.4035 21.9624 18.2525 21.9624C16.2228 21.9624 14.574 23.6111 14.574 25.6408C14.574 27.6705 16.2228 29.3193 18.2525 29.3193C20.2822 29.3193 22.0754 27.7165 22.0754 25.6868L22.1083 9.14038H25.5043C25.8261 12.1882 28.2762 14.5661 31.3307 14.7894V18.7306" fill="#1F2B5A"/>
</g>
<defs>
<clipPath id="clip0_278_5682">
<rect width="40.8767" height="40.8767" fill="white" transform="translate(0.753418 0.561523)"/>
</clipPath>
</defs>
</svg>
