<svg width="42" height="42" viewBox="0 0 42 42" fill="none" xmlns="http://www.w3.org/2000/svg">
<g clip-path="url(#clip0_278_5688)">
<path d="M20.9454 41.4418C32.2333 41.4418 41.384 32.2911 41.384 21.0032C41.384 9.71534 32.2333 0.564697 20.9454 0.564697C9.65754 0.564697 0.506897 9.71534 0.506897 21.0032C0.506897 32.2911 9.65754 41.4418 20.9454 41.4418Z" fill="#66F9CA"/>
<path d="M33.4702 27.0327C29.9827 26.4613 28.4131 22.8885 28.3474 22.7375C28.3474 22.7309 28.3408 22.7178 28.3343 22.7112C28.1569 22.35 28.1175 22.0544 28.2095 21.8246C28.3999 21.378 29.129 21.1481 29.615 20.9905C29.7529 20.9445 29.8842 20.9051 29.9959 20.8591C30.4688 20.6687 30.8103 20.4651 31.0336 20.2352C31.3028 19.9593 31.3554 19.6966 31.3488 19.5259C31.3422 19.1056 31.0204 18.7378 30.5082 18.5539C30.3374 18.4816 30.1404 18.4488 29.9433 18.4488C29.8054 18.4488 29.6084 18.4685 29.4179 18.5539C29.0107 18.7443 28.6429 18.8494 28.3343 18.8625C28.1701 18.856 28.0519 18.8166 27.973 18.7837C27.9796 18.6195 27.9927 18.4554 28.0059 18.278V18.2058C28.1241 16.4391 28.262 14.2455 27.6775 12.9451C27.2769 12.0519 26.7449 11.2835 26.0816 10.6596C25.5299 10.1407 24.8862 9.71381 24.1704 9.39856C22.9291 8.85345 21.7732 8.76807 21.1952 8.76807H21.1296C20.9654 8.76807 20.7027 8.76807 20.683 8.76807C20.105 8.76807 18.9491 8.84688 17.7012 9.39856C16.9919 9.71381 16.3483 10.1341 15.7966 10.653C15.1399 11.2769 14.6079 12.0388 14.2072 12.932C13.6227 14.2324 13.7606 16.4259 13.8723 18.1926C13.8854 18.3831 13.8986 18.5801 13.9051 18.7772C13.8198 18.8166 13.6818 18.856 13.4782 18.856C13.1499 18.856 12.7558 18.7509 12.3158 18.5473C12.1844 18.4882 12.0399 18.4554 11.8757 18.4554C11.613 18.4554 11.3372 18.5342 11.0942 18.6721C10.7921 18.8494 10.595 19.099 10.5425 19.3748C10.5097 19.5587 10.5097 19.9199 10.9169 20.2877C11.1402 20.4913 11.4685 20.6752 11.8889 20.846C12.0005 20.892 12.1319 20.9314 12.2698 20.9773C12.7492 21.1284 13.4848 21.3648 13.6753 21.8114C13.7738 22.0347 13.7278 22.3368 13.5505 22.6981C13.5505 22.7046 13.5439 22.7178 13.5373 22.7243C13.4914 22.8294 13.0776 23.7686 12.2238 24.7537C11.7378 25.3186 11.2058 25.7849 10.641 26.1526C9.95141 26.5992 9.20269 26.8882 8.41458 27.0196C8.1059 27.0721 7.88916 27.3414 7.9023 27.6566C7.9023 27.7486 7.92857 27.834 7.96798 27.9193C8.09276 28.2149 8.38174 28.4579 8.84804 28.6746C9.41943 28.9373 10.2798 29.1606 11.3963 29.338C11.4554 29.443 11.5145 29.7123 11.5539 29.8962C11.5933 30.0932 11.6393 30.2968 11.705 30.507C11.7706 30.7369 11.948 31.0127 12.4011 31.0127C12.5719 31.0127 12.7689 30.9733 12.9988 30.9273C13.3337 30.8616 13.7935 30.7697 14.3649 30.7697C14.6801 30.7697 15.0151 30.796 15.3434 30.8551C15.9805 30.9602 16.5322 31.3477 17.1693 31.8008C18.1019 32.4576 19.1593 33.2063 20.7683 33.2063C20.8143 33.2063 20.8537 33.2063 20.8997 33.2063C20.9522 33.2063 21.0179 33.2063 21.0901 33.2063C22.7058 33.2063 23.7566 32.4642 24.6892 31.8074C25.3263 31.3608 25.878 30.9667 26.515 30.8616C26.8434 30.8091 27.1718 30.7763 27.4936 30.7763C28.0387 30.7763 28.4722 30.8485 28.8597 30.9208C29.1092 30.9667 29.3063 30.993 29.4573 30.993H29.4836C29.8186 30.993 30.0616 30.8091 30.1535 30.4939C30.2126 30.2837 30.2586 30.0867 30.3046 29.8896C30.344 29.7189 30.4031 29.443 30.4622 29.3314C31.5787 29.1541 32.439 28.9308 33.0104 28.6681C33.4767 28.4513 33.7657 28.2083 33.8905 27.9128C33.9299 27.8274 33.9496 27.7354 33.9562 27.6435C33.9759 27.3348 33.7526 27.059 33.4439 27.013L33.4702 27.0327Z" fill="#1F2B5A"/>
</g>
<defs>
<clipPath id="clip0_278_5688">
<rect width="40.8705" height="40.8705" fill="white" transform="translate(0.506897 0.564697)"/>
</clipPath>
</defs>
</svg>
