<svg width="14" height="14" viewBox="0 0 14 14" fill="none" xmlns="http://www.w3.org/2000/svg">
<path d="M12.36 3.5463L8.51999 0.859633C7.47333 0.1263 5.86666 0.1663 4.85999 0.9463L1.51999 3.55297C0.853327 4.07297 0.32666 5.13963 0.32666 5.97963L0.32666 10.5796C0.32666 12.2796 1.70666 13.6663 3.40666 13.6663L10.5933 13.6663C12.2933 13.6663 13.6733 12.2863 13.6733 10.5863L13.6733 6.0663C13.6733 5.1663 13.0933 4.05963 12.36 3.5463ZM10.2533 7.93297C10.2533 8.19297 10.0467 8.39963 9.78666 8.39963C9.52666 8.39963 9.31999 8.19297 9.31999 7.93297V7.81297L7.50666 9.6263C7.40666 9.7263 7.27333 9.77297 7.13333 9.75963C6.99999 9.7463 6.87333 9.6663 6.79999 9.55297L6.11999 8.53963L4.53333 10.1263C4.43999 10.2196 4.32666 10.2596 4.20666 10.2596C4.08666 10.2596 3.96666 10.213 3.87999 10.1263C3.69999 9.9463 3.69999 9.65297 3.87999 9.4663L5.86666 7.47963C5.96666 7.37963 6.09999 7.33297 6.23999 7.3463C6.37999 7.35963 6.50666 7.43297 6.57999 7.55297L7.25999 8.5663L8.66666 7.15963H8.54666C8.28666 7.15963 8.07999 6.95297 8.07999 6.69297C8.07999 6.43297 8.28666 6.2263 8.54666 6.2263H9.78666C9.84666 6.2263 9.90666 6.23963 9.96666 6.25963C10.08 6.3063 10.1733 6.39963 10.22 6.51297C10.2467 6.57297 10.2533 6.63297 10.2533 6.69297L10.2533 7.93297Z" fill="white"/>
</svg>
