<svg width="40" height="40" viewBox="0 0 40 40" fill="none" xmlns="http://www.w3.org/2000/svg">
<path d="M34.3688 14.0834C32.6188 6.38341 25.9021 2.91675 20.0021 2.91675C20.0021 2.91675 20.0021 2.91675 19.9854 2.91675C14.1021 2.91675 7.36878 6.36675 5.61878 14.0667C3.66878 22.6667 8.93545 29.9501 13.7021 34.5334C15.4688 36.2334 17.7354 37.0834 20.0021 37.0834C22.2688 37.0834 24.5354 36.2334 26.2854 34.5334C31.0521 29.9501 36.3188 22.6834 34.3688 14.0834ZM20.0021 22.4334C17.1021 22.4334 14.7521 20.0834 14.7521 17.1834C14.7521 14.2834 17.1021 11.9334 20.0021 11.9334C22.9021 11.9334 25.2521 14.2834 25.2521 17.1834C25.2521 20.0834 22.9021 22.4334 20.0021 22.4334Z" fill="#4AD7AA"/>
</svg>
